<svg width="36" height="105" viewBox="0 0 36 105" fill="none" xmlns="http://www.w3.org/2000/svg">
<path d="M20.0343 85.8863C20.0343 85.8863 19.0003 78.3058 14.1525 77.4766C9.30544 76.6474 10.7664 72.982 9.50362 71.5635C8.24082 70.145 4.94266 74.3304 7.76774 78.3848C10.5936 82.4399 8.28329 81.1651 9.50362 84.9356C10.7239 88.7061 20.4776 92.169 20.0343 85.8863Z" fill="#263238"/>
<path opacity="0.2" d="M20.0343 85.8863C20.0343 85.8863 19.0003 78.3058 14.1525 77.4766C9.30544 76.6474 10.7664 72.982 9.50362 71.5635C8.24082 70.145 4.94266 74.3304 7.76774 78.3848C10.5936 82.4399 8.28329 81.1651 9.50362 84.9356C10.7239 88.7061 20.4776 92.169 20.0343 85.8863Z" fill="white"/>
<path d="M19.8321 90.8083C19.8321 90.8083 16.1167 83.087 18.0671 70.4851C20.0176 57.8833 27.3432 52.9923 20.9756 39.1262C14.608 25.2593 7.33152 15.3722 10.9709 5.5329" stroke="#263238" stroke-width="0.9024" stroke-miterlimit="10" stroke-linecap="round" stroke-linejoin="round"/>
<path d="M17.0338 89.2929C17.0338 89.2929 13.9003 84.571 18.4233 82.1438C22.9455 79.7165 23.8514 81.6707 26.6497 79.9251C29.448 78.1796 31.5675 73.9494 32.0451 76.656C32.5219 79.3619 29.2908 80.9063 30.4336 82.1438C31.5757 83.382 22.827 91.4214 17.0338 89.2929Z" fill="#263238"/>
<path d="M9.64269 9.47602C9.64269 9.47602 6.58964 0.197666 13.5316 0.0032183C20.4744 -0.191229 12.8224 8.48665 9.64269 9.47602Z" fill="#263238"/>
<path d="M15.6726 16.6084C15.6726 16.6084 17.7415 8.17193 22.6698 9.95102C27.5973 11.7308 20.5845 16.7641 15.6726 16.6084Z" fill="#263238"/>
<path d="M7.31334 17.3405C7.31334 17.3405 8.05611 10.6078 2.82688 10.4745C-2.4016 10.3404 -0.0741894 16.2528 7.31334 17.3405Z" fill="#263238"/>
<path d="M10.793 31.0734C10.793 31.0734 3.77501 24.8176 1.25166 29.4731C-1.2717 34.1287 6.54495 35.0987 10.793 31.0734Z" fill="#263238"/>
<path d="M23.2082 29.9642C23.2082 29.9642 24.5276 19.5735 30.1964 22.8329C35.866 26.0916 28.1469 31.0027 23.2082 29.9642Z" fill="#263238"/>
<path d="M28.1961 44.8404C28.1961 44.8404 24.0122 34.3417 31.7871 35.5248C39.5628 36.7072 33.6854 42.2925 28.1961 44.8404Z" fill="#263238"/>
<path d="M16.2645 48.586C16.2645 48.586 9.69646 40.8491 4.67807 43.3024C-0.341068 45.7564 3.76096 53.4479 16.2645 48.586Z" fill="#263238"/>
<path d="M22.2245 65.7285C22.2245 65.7285 27.8195 53.3047 32.7947 57.4917C37.7691 61.6794 29.6209 67.939 22.2245 65.7285Z" fill="#263238"/>
<path d="M14.0939 65.0006C14.0939 65.0006 15.572 55.3632 10.0329 56.138C4.49448 56.9128 5.94874 62.8088 14.0939 65.0006Z" fill="#263238"/>
<g opacity="0.2">
<path d="M9.64269 9.47602C9.64269 9.47602 6.58964 0.197666 13.5316 0.0032183C20.4744 -0.191229 12.8224 8.48665 9.64269 9.47602Z" fill="white"/>
<path d="M15.6726 16.6084C15.6726 16.6084 17.7415 8.17193 22.6698 9.95102C27.5973 11.7308 20.5845 16.7641 15.6726 16.6084Z" fill="white"/>
<path d="M7.31334 17.3405C7.31334 17.3405 8.05611 10.6078 2.82688 10.4745C-2.4016 10.3404 -0.0741894 16.2528 7.31334 17.3405Z" fill="white"/>
<path d="M10.793 31.0734C10.793 31.0734 3.77501 24.8176 1.25166 29.4731C-1.2717 34.1287 6.54495 35.0987 10.793 31.0734Z" fill="white"/>
<path d="M23.2082 29.9642C23.2082 29.9642 24.5276 19.5735 30.1964 22.8329C35.866 26.0916 28.1469 31.0027 23.2082 29.9642Z" fill="white"/>
<path d="M28.1961 44.8404C28.1961 44.8404 24.0122 34.3417 31.7871 35.5248C39.5628 36.7072 33.6854 42.2925 28.1961 44.8404Z" fill="white"/>
<path d="M16.2645 48.586C16.2645 48.586 9.69646 40.8491 4.67807 43.3024C-0.341068 45.7564 3.76096 53.4479 16.2645 48.586Z" fill="white"/>
<path d="M22.2245 65.7285C22.2245 65.7285 27.8195 53.3047 32.7947 57.4917C37.7691 61.6794 29.6209 67.939 22.2245 65.7285Z" fill="white"/>
<path d="M14.0939 65.0006C14.0939 65.0006 15.572 55.3632 10.0329 56.138C4.49448 56.9128 5.94874 62.8088 14.0939 65.0006Z" fill="white"/>
</g>
<path d="M5.57299 15.1328C5.57299 15.1328 8.55973 19.5709 12.6461 21.8588C12.6461 21.8588 15.349 16.6437 17.4574 15.3794" stroke="#263238" stroke-width="0.9024" stroke-miterlimit="10" stroke-linecap="round" stroke-linejoin="round"/>
<path d="M5.40381 30.4521C5.40381 30.4521 12.9985 30.207 19.0099 34.7515C19.0099 34.7515 22.3476 29.0939 26.7268 26.5155" stroke="#263238" stroke-width="0.9024" stroke-miterlimit="10" stroke-linecap="round" stroke-linejoin="round"/>
<path d="M30.4859 39.8685C30.4859 39.8685 27.2258 48.4488 23.0626 51.7879C23.0626 51.7879 14.4354 46.7867 8.09985 46.6615" stroke="#263238" stroke-width="0.9024" stroke-miterlimit="10" stroke-linecap="round" stroke-linejoin="round"/>
<path d="M10.6737 59.264C10.6737 59.264 14.9366 67.585 18.1163 69.4036C18.1163 69.4036 21.0882 65.2121 27.5176 63.2818" stroke="#263238" stroke-width="0.9024" stroke-miterlimit="10" stroke-linecap="round" stroke-linejoin="round"/>
<path d="M17.5158 88.1664C17.5158 88.1664 14.8293 83.8901 11.7948 83.2814C8.76042 82.6727 7.45292 79.1779 6.33317 81.2795C5.21268 83.382 8.30075 90.3508 17.5158 88.1664Z" fill="#263238"/>
<path d="M3.57173 104.952H32.9087L34.8719 86.8561H1.60863L3.57173 104.952Z" fill="#0B90AF"/>
<path d="M0.924398 90.2848H35.5577L36.0002 86.4503H0.481121L0.924398 90.2848Z" fill="#0B90AF"/>
<path opacity="0.3" d="M0.924398 90.2848H35.5577L36.0002 86.4503H0.481121L0.924398 90.2848Z" fill="white"/>
</svg>
