<svg width="35" height="38" viewBox="0 0 35 38" fill="none" xmlns="http://www.w3.org/2000/svg">
<path d="M28.2241 0H6.64476C2.97458 0 0 2.97536 0 6.64478V25.4253C0 29.0948 2.97534 32.0701 6.64476 32.0701H15.1795L17.4345 37.9998L19.6894 32.0701H28.2249C31.8943 32.0701 34.8697 29.0955 34.8697 25.4253V6.64478C34.8689 2.97536 31.8943 0 28.2241 0Z" fill="#0B90AF"/>
<path opacity="0.7" d="M28.2241 0H6.64476C2.97458 0 0 2.97536 0 6.64478V25.4253C0 29.0948 2.97534 32.0701 6.64476 32.0701H15.1795L17.4345 37.9998L19.6894 32.0701H28.2249C31.8943 32.0701 34.8697 29.0955 34.8697 25.4253V6.64478C34.8689 2.97536 31.8943 0 28.2241 0Z" fill="white"/>
<path d="M25.0047 23.5279C29.1872 19.3454 29.1872 12.5643 25.0047 8.38178C20.8222 4.19928 14.041 4.19927 9.85855 8.38177C5.67605 12.5643 5.67605 19.3454 9.85855 23.5279C14.0411 27.7104 20.8222 27.7104 25.0047 23.5279Z" fill="#0B90AF"/>
<path d="M16.3097 20.738C16.0205 20.738 15.7463 20.6111 15.5593 20.391L11.3573 15.4401C11.0057 15.0255 11.0568 14.405 11.4707 14.0527C11.8846 13.7019 12.5058 13.7515 12.8581 14.1661L16.3097 18.2329L22.0095 11.5175C22.3618 11.1021 22.983 11.0526 23.3969 11.4041C23.8115 11.7556 23.8626 12.3769 23.5103 12.7915L17.0601 20.3918C16.873 20.6111 16.5989 20.738 16.3097 20.738Z" fill="white"/>
</svg>
