<svg width="36" height="36" viewBox="0 0 36 36" fill="none" xmlns="http://www.w3.org/2000/svg">
<path d="M7.97836 21.7559L6.72525 26.434L2.14516 26.5309C0.776391 23.9921 0 21.0874 0 18.0007C0 15.0159 0.725906 12.2011 2.01262 9.72266H2.01361L6.09117 10.4702L7.87739 14.5233C7.50354 15.6132 7.29977 16.7832 7.29977 18.0007C7.29991 19.322 7.53926 20.588 7.97836 21.7559Z" fill="#FBBB00"/>
<path d="M35.6853 14.6367C35.892 15.7256 35.9998 16.8501 35.9998 17.9993C35.9998 19.288 35.8643 20.5451 35.6062 21.7576C34.7299 25.8838 32.4404 29.4867 29.2686 32.0364L29.2676 32.0354L24.1317 31.7734L23.4049 27.2357C25.5094 26.0015 27.1542 24.0699 28.0206 21.7576H18.3955V14.6367H35.6853Z" fill="#518EF8"/>
<path d="M29.2681 32.0366L29.2691 32.0376C26.1844 34.517 22.2659 36.0005 18.0003 36.0005C11.1455 36.0005 5.18575 32.1691 2.14551 26.5308L7.9787 21.7559C9.49879 25.8128 13.4123 28.7007 18.0003 28.7007C19.9724 28.7007 21.8199 28.1676 23.4053 27.2369L29.2681 32.0366Z" fill="#28B446"/>
<path d="M29.4894 4.14394L23.6582 8.91788C22.0174 7.8923 20.0779 7.29984 18.0001 7.29984C13.3082 7.29984 9.32147 10.3203 7.87753 14.5226L2.01368 9.72197H2.0127C5.00843 3.94615 11.0434 0 18.0001 0C22.3675 0 26.372 1.55573 29.4894 4.14394Z" fill="#F14336"/>
</svg>
