<svg width="74" height="74" viewBox="0 0 74 74" fill="none" xmlns="http://www.w3.org/2000/svg">
<g clip-path="url(#clip0_21_904)">
<path d="M46.25 20.042C45.4322 20.042 44.648 19.7171 44.0698 19.1389C43.4915 18.5607 43.1667 17.7764 43.1667 16.9587V12.3337H30.8333V16.9587C30.8333 17.7764 30.5085 18.5607 29.9302 19.1389C29.352 19.7171 28.5678 20.042 27.75 20.042C26.9322 20.042 26.148 19.7171 25.5698 19.1389C24.9915 18.5607 24.6667 17.7764 24.6667 16.9587V12.3337C24.6667 8.93274 27.4324 6.16699 30.8333 6.16699H43.1667C46.5676 6.16699 49.3333 8.93274 49.3333 12.3337V16.9587C49.3333 17.7764 49.0085 18.5607 48.4302 19.1389C47.852 19.7171 47.0677 20.042 46.25 20.042ZM39.1892 47.422C37.707 47.9314 36.0937 47.9096 34.6258 47.3603L0 35.8287V59.3545C0 64.0412 3.7925 67.8337 8.47917 67.8337H65.5208C70.2075 67.8337 74 64.0412 74 59.3545V35.8287L39.1892 47.422Z" fill="#FF9633"/>
<path d="M74 23.8962V30.957L37.74 43.0437C37.4933 43.1362 37.2467 43.167 37 43.167C36.7533 43.167 36.5067 43.1362 36.26 43.0437L0 30.957V23.8962C0 19.2095 3.7925 15.417 8.47917 15.417H65.5208C70.2075 15.417 74 19.2095 74 23.8962Z" fill="#FF9633"/>
</g>
<defs>
<clipPath id="clip0_21_904">
<rect width="74" height="74" fill="white"/>
</clipPath>
</defs>
</svg>
