<svg width="172" height="159" viewBox="0 0 172 159" fill="none" xmlns="http://www.w3.org/2000/svg">
<path d="M159.267 158.789H164.181L154.136 102.091H149.222L159.267 158.789Z" fill="#263238"/>
<path d="M51.2522 158.789H56.1664L46.1214 102.091H41.2072L51.2522 158.789Z" fill="#263238"/>
<path opacity="0.3" d="M159.267 158.789H164.181L154.136 102.091H149.222L159.267 158.789Z" fill="white"/>
<path opacity="0.3" d="M51.2522 158.789H56.1664L46.1214 102.091H41.2072L51.2522 158.789Z" fill="white"/>
<path d="M8.50641 135.416L156.701 135.416V130.439L8.50641 130.439V135.416Z" fill="#263238"/>
<path opacity="0.5" d="M8.50641 135.416L156.701 135.416V130.439L8.50641 130.439V135.416Z" fill="white"/>
<path d="M113.954 158.789H109.04L119.085 102.091H123.999L113.954 158.789Z" fill="#263238"/>
<path d="M5.94076 158.789H1.02654L11.0715 102.091H15.9857L5.94076 158.789Z" fill="#263238"/>
<path opacity="0.3" d="M113.954 158.789H109.04L119.085 102.091H123.999L113.954 158.789Z" fill="white"/>
<path opacity="0.3" d="M5.94076 158.789H1.02654L11.0715 102.091H15.9857L5.94076 158.789Z" fill="white"/>
<path d="M50.5008 99.8866H55.3904L63.5759 54.3833H58.6854L50.5008 99.8866Z" fill="#263238"/>
<path opacity="0.3" d="M50.5008 99.8866H55.3904L63.5759 54.3833H58.6854L50.5008 99.8866Z" fill="white"/>
<path d="M147.597 99.8866H152.488L160.672 54.3833H155.783L147.597 99.8866Z" fill="#263238"/>
<path d="M99.0491 99.8866H103.939L112.125 54.3833H107.234L99.0491 99.8866Z" fill="#263238"/>
<path opacity="0.3" d="M147.597 99.8866H152.488L160.672 54.3833H155.783L147.597 99.8866Z" fill="white"/>
<path opacity="0.3" d="M99.0491 99.8866H103.939L112.125 54.3833H107.234L99.0491 99.8866Z" fill="white"/>
<path d="M42.054 57.4917H170.468L172 48.9751H43.5862L42.054 57.4917Z" fill="#263238"/>
<path d="M39.2831 72.8966H167.698L169.229 64.3801H40.8152L39.2831 72.8966Z" fill="#263238"/>
<path d="M36.5121 88.3016H164.927L166.459 79.7851H38.0442L36.5121 88.3016Z" fill="#263238"/>
<path d="M-0.000228921 104.437L163.655 104.437V98.5455L-0.000228921 98.5455V104.437Z" fill="#263238"/>
<path opacity="0.5" d="M42.054 57.4917H170.468L172 48.9751H43.5862L42.054 57.4917Z" fill="white"/>
<path opacity="0.5" d="M39.2831 72.8966H167.698L169.229 64.3801H40.8152L39.2831 72.8966Z" fill="white"/>
<path opacity="0.5" d="M36.5121 88.3016H164.927L166.459 79.7851H38.0442L36.5121 88.3016Z" fill="white"/>
<path opacity="0.5" d="M-0.000228921 104.437L163.655 104.437V98.5455L-0.000228921 98.5455V104.437Z" fill="white"/>
<path opacity="0.2" d="M0.000457842 104.437L123.474 104.437V98.5455L0.000457842 98.5455V104.437Z" fill="white"/>
<path d="M110.822 37.8352C108.735 40.1427 106.609 42.2665 104.286 44.3389C103.123 45.3673 101.928 46.3793 100.613 47.3481C99.9563 47.8348 99.2702 48.3147 98.5023 48.7873C98.1138 49.0202 97.7016 49.2508 97.2313 49.4793C96.7536 49.7048 96.2312 49.9392 95.4647 50.1311C95.0622 50.2212 94.5978 50.312 93.9318 50.2859C93.7577 50.2755 93.559 50.2547 93.4072 50.2301L93.1364 50.1698C92.9585 50.1274 92.771 50.0828 92.6058 50.0329C91.9874 49.829 91.4576 49.5894 91.0171 49.3446C90.1212 48.846 89.415 48.317 88.7453 47.7834C87.4163 46.7208 86.3112 45.5853 85.2367 44.4438C83.1182 42.1318 81.2765 39.7283 79.5754 37.135C79.0136 36.2777 79.2524 35.1281 80.1089 34.5655C80.8144 34.1027 81.7192 34.183 82.3301 34.7039L82.3703 34.7389C84.5841 36.629 86.8418 38.5518 89.0794 40.2983C90.1896 41.1763 91.3348 41.9978 92.419 42.6795C92.9578 43.0121 93.501 43.3001 93.9363 43.469C94.1573 43.5657 94.3233 43.597 94.4148 43.6141C94.4289 43.6119 94.4244 43.6007 94.4282 43.5999L94.4297 43.5992C94.3701 43.5858 94.2645 43.5709 94.1826 43.5687C93.8887 43.5531 93.7942 43.5791 93.7517 43.5791C93.7041 43.5754 93.8656 43.5054 94.0472 43.3871C94.2362 43.2688 94.4617 43.1155 94.6968 42.9421C95.1738 42.5991 95.685 42.1913 96.1947 41.7552C97.2134 40.8757 98.2515 39.9158 99.2739 38.9246C101.314 36.946 103.379 34.8393 105.357 32.7982L105.395 32.7588C106.823 31.2846 109.177 31.2474 110.65 32.6762C112.093 34.0707 112.155 36.3566 110.822 37.8352Z" fill="#E9B376"/>
<path d="M108.933 31.1703V41.8337C108.933 41.8337 106.678 43.7089 103.91 45.7776C102.526 46.8119 101.016 47.8909 99.6018 48.8062C97.4512 50.2051 95.5165 51.232 94.5343 51.1725C91.6024 50.9939 85.2401 46.4473 85.2401 46.4473L89.4221 39.4823C89.4221 39.4823 94.2292 42.4216 94.5343 42.6225C94.8394 42.8159 104.922 31.2373 108.933 31.1703Z" fill="#0B90AF"/>
<path opacity="0.2" d="M103.909 45.7775C102.525 46.8118 101.015 47.8908 99.6009 48.8061C99.9358 42.6894 102.816 40.3379 102.816 40.3379C103.709 42.0494 103.998 43.9618 103.909 45.7775Z" fill="black"/>
<path d="M113.003 3.1302C107.868 7.32038 108.472 19.3745 114.244 27.2853C114.244 27.2853 126.566 28.3182 133.41 25.2538C140.253 22.1895 132.688 2.67107 125.454 1.13445C118.219 -0.402172 113.003 3.1302 113.003 3.1302Z" fill="#263238"/>
<path d="M113.301 15.6592C111.42 12.4111 109.55 3.65647 117.377 0.951566C127.147 -2.42603 131.527 3.8038 132.371 9.9793C133.214 16.1541 129.735 20.8235 123.278 20.3591C116.821 19.8941 114.602 17.9058 113.301 15.6592Z" fill="#263238"/>
<path d="M102.814 40.3406C101.858 44.8545 103.533 55.4963 103.808 63.5165L126.815 66.1685C126.821 63.6512 127.287 60.0035 128.786 54.2089C129.649 50.8142 130.878 46.6813 132.567 41.6071C132.816 40.8526 133.074 40.0839 133.347 39.2884C134.558 35.7434 132.469 32.1657 128.856 31.6001C127.892 31.4468 126.865 31.3114 125.815 31.2095C121.718 30.7913 118.351 30.4802 114.69 30.6186C113.475 30.6588 112.213 30.7496 111.003 30.8508C106.65 31.2169 103.707 36.1103 102.814 40.3406Z" fill="#263238"/>
<path d="M125.697 18.6399C124.539 22.1678 123.001 28.6625 125.2 31.174C125.2 31.174 121.837 30.4849 114.403 34.5531C112.478 31.453 114.077 30.5824 114.077 30.5824C118.19 29.8457 118.465 26.89 118.125 24.0832L125.697 18.6399Z" fill="#EBB376"/>
<path opacity="0.2" d="M122.61 20.861L118.129 24.0808C118.211 24.7453 118.256 25.4173 118.219 26.0661C119.772 25.9277 122.081 24.3718 122.446 22.7905C122.628 22.001 122.692 21.2375 122.61 20.861Z" fill="black"/>
<path d="M127.233 10.4016C127.313 16.2898 127.471 18.7804 124.736 22.0107C120.623 26.8698 113.373 25.6792 111.536 19.9331C109.883 14.7614 110.031 6.0008 115.593 3.2386C121.074 0.517332 127.154 4.51403 127.233 10.4016Z" fill="#FFB573"/>
<path d="M122.241 4.89464C120.608 6.94025 124.328 13.3851 127.255 14.4835C132.95 12.606 127.113 -1.21092 122.241 4.89464Z" fill="#263238"/>
<path d="M115.269 2.15165C113.104 3.10414 111.072 7.17377 110.807 8.69402C114.026 8.93586 122.32 5.21374 122.32 5.21374C122.32 5.21374 128.166 6.29049 125.021 3.64958C121.877 1.00868 115.269 2.15165 115.269 2.15165Z" fill="#263238"/>
<path d="M117.442 12.7973C117.478 13.2743 117.254 13.6806 116.942 13.7037C116.63 13.7267 116.348 13.3591 116.313 12.8821C116.277 12.4052 116.501 11.9989 116.813 11.9758C117.124 11.952 117.406 12.3203 117.442 12.7973Z" fill="#263238"/>
<path d="M112.048 13.2016C112.083 13.6786 111.859 14.0849 111.548 14.108C111.236 14.131 110.954 13.7634 110.918 13.2864C110.882 12.8095 111.106 12.4032 111.418 12.3801C111.73 12.357 112.012 12.7246 112.048 13.2016Z" fill="#263238"/>
<path d="M111.558 12.3963L110.387 12.1515C110.387 12.1515 111.042 13.0028 111.558 12.3963Z" fill="#263238"/>
<path d="M114.335 13.7973C114.335 13.7973 113.68 15.9128 112.862 16.971C113.536 17.512 114.588 17.163 114.588 17.163L114.335 13.7973Z" fill="#ED893E"/>
<path d="M117.33 18.8362C117.113 18.8868 116.88 18.9233 116.63 18.9419C116.553 18.9478 116.485 18.8898 116.48 18.8124C116.474 18.735 116.539 18.6673 116.61 18.6621C118.71 18.5043 119.573 16.9684 119.581 16.9536C119.618 16.8858 119.703 16.8605 119.772 16.8985C119.84 16.9357 119.865 17.0213 119.827 17.0897C119.794 17.1493 119.068 18.4336 117.33 18.8362Z" fill="#263238"/>
<path d="M129.225 15.657C128.894 16.832 128.05 17.7443 127.168 18.2205C125.84 18.9371 124.845 17.8291 124.936 16.4019C125.019 15.1175 125.809 13.1969 127.276 13.069C128.72 12.9425 129.603 14.3131 129.225 15.657Z" fill="#FFB573"/>
<path d="M120.085 11.3966C119.97 11.4234 119.846 11.375 119.781 11.2678C119.109 10.1546 117.44 10.0222 117.424 10.0214C117.269 10.0103 117.152 9.87557 117.163 9.72079C117.174 9.56602 117.308 9.44919 117.464 9.46036C117.544 9.46631 119.442 9.61736 120.263 10.9769C120.343 11.1101 120.3 11.2827 120.167 11.3631C120.141 11.3795 120.114 11.3906 120.085 11.3966Z" fill="#263238"/>
<path d="M110.8 10.6915C110.707 10.7131 110.605 10.6863 110.533 10.6119C110.426 10.4996 110.43 10.3217 110.542 10.2146C111.664 9.13929 112.932 9.41834 112.984 9.43099C113.136 9.46597 113.23 9.61776 113.194 9.76882C113.159 9.91914 113.009 10.0136 112.858 9.97941C112.816 9.97048 111.827 9.76213 110.93 10.6209C110.894 10.6566 110.848 10.6804 110.8 10.6915Z" fill="#263238"/>
<path d="M116.953 11.991L115.781 11.7461C115.781 11.7461 116.437 12.5982 116.953 11.991Z" fill="#263238"/>
<path d="M96.0403 33.7299L96.5976 35.4734C96.8075 36.1289 97.3209 36.6431 97.9765 36.853L101.04 37.8345C102.265 38.2266 103.604 38.0019 104.633 37.2302L105.27 36.7525C104.543 33.7976 101.58 31.1403 101.58 31.1403L100.82 30.289C100.142 29.5315 99.0488 29.4437 98.3076 30.0889L96.6013 31.5734C96.012 32.0861 95.7888 32.9441 96.0403 33.7299Z" fill="#EBB376"/>
<path d="M75.4391 35.3268L75.9964 37.0703C76.2063 37.7259 76.7197 38.2401 77.3753 38.4499L80.4389 39.4314C81.6637 39.8236 83.0024 39.5988 84.0315 38.8272L84.6685 38.3495C83.9415 35.3945 80.9791 32.7373 80.9791 32.7373L80.2186 31.886C79.5415 31.1285 78.4476 31.0406 77.7065 31.6858L76.0002 33.1703C75.4108 33.683 75.1876 34.541 75.4391 35.3268Z" fill="#EBB376"/>
<path opacity="0.2" d="M119.912 44.6727C121.391 49.0325 125.169 52.2851 128.785 54.2087C129.648 50.8139 130.877 46.681 132.567 41.6068C130.299 38.4331 127.119 36.1792 123.076 36.7886C123.076 36.7886 118.413 40.2563 119.912 44.6727Z" fill="black"/>
<path d="M38.2585 131.186L42.1413 132.754C42.1413 132.754 75.1485 82.967 78.2032 84.8377C89.2684 91.616 112.016 103.73 122.782 96.3948C133.546 89.0659 127.157 69.7178 127.157 69.7178C127.157 69.7178 106.221 62.3696 103.634 66.9125C103.132 67.7905 102.422 69.569 101.855 71.0982C101.314 72.5381 100.898 73.754 100.898 73.754C100.898 73.754 100.892 73.7525 100.886 73.7443C100.252 73.4437 79.7294 63.5721 70.0647 67.638C60.2459 71.7754 38.2585 131.186 38.2585 131.186Z" fill="#EBB376"/>
<path d="M109.827 99.0524C109.827 99.0524 99.4448 99.731 85.2253 94.8994C85.2253 94.8994 81.7197 134.547 79.3668 156.064L74.5976 155.392C74.5976 155.392 66.4956 96.6563 68.0984 89.4956C69.7013 82.3341 78.3681 81.8645 78.3681 81.8645C78.3681 81.8645 94.9614 94.0399 109.827 99.0524Z" fill="#EBB376"/>
<path d="M109.827 99.0515C109.596 99.0054 99.4451 99.4303 89.063 96.4851L90.4136 90.8446C95.6478 94.2899 102.934 96.3928 109.827 99.0515Z" fill="#0B90AF"/>
<path opacity="0.4" d="M109.827 99.0515C109.596 99.0054 99.4451 99.4303 89.063 96.4851L90.4136 90.8446C95.6478 94.2899 102.934 96.3928 109.827 99.0515Z" fill="white"/>
<path d="M89.5373 90.2576L88.2924 96.535L90.1869 97.1802L91.6424 91.6379L89.5373 90.2576Z" fill="#0B90AF"/>
<path opacity="0.6" d="M89.5373 90.2576L88.2924 96.535L90.1869 97.1802L91.6424 91.6379L89.5373 90.2576Z" fill="white"/>
<path opacity="0.2" d="M69.821 114.465C69.0709 98.8623 68.7487 90.7722 71.3152 87.5449C73.8817 84.3184 77.9007 83.7365 77.9007 83.7365C81.2315 92.1823 95.7784 97.4544 96.1587 97.5951C96.1653 97.5966 96.1653 97.5966 96.1653 97.5966C101.593 98.7239 109.63 99.0134 109.826 99.0521C101.592 97.3517 95.646 94.2904 90.4118 90.8444C83.1714 86.0738 78.3658 81.8665 78.3658 81.8665C78.3658 81.8665 69.699 82.3368 68.0961 89.4975C67.4428 92.4249 68.4124 103.978 69.7801 116.617C69.8374 115.818 69.8486 115.098 69.821 114.465Z" fill="black"/>
<path d="M34.3789 127.915C34.3067 127.767 34.2747 127.525 34.5269 127.213C34.6497 127.062 34.8194 126.976 35.0315 126.957C35.4318 126.921 35.9534 127.145 36.4334 127.427C36.0688 126.945 35.7897 126.435 35.9155 126.114C35.9981 125.905 36.2072 125.797 36.5383 125.794C36.8486 125.79 37.1113 125.903 37.3181 126.128C37.97 126.835 37.8308 128.45 37.8242 128.526C37.8219 128.552 37.8137 128.578 37.7989 128.602C37.7914 128.614 37.7817 128.625 37.7713 128.636C37.7549 128.651 37.7364 128.663 37.7163 128.672H37.7155C37.6969 128.679 37.6753 128.683 37.6538 128.683C37.368 128.687 36.3969 128.686 35.5784 128.523C35.0181 128.412 34.5292 128.226 34.3789 127.915ZM35.062 127.302C34.9451 127.312 34.8581 127.354 34.7956 127.431C34.6281 127.637 34.6743 127.732 34.6891 127.764C34.8633 128.124 36.106 128.299 37.1544 128.332C36.5569 127.876 35.6059 127.252 35.062 127.302ZM36.5413 126.14C36.4423 126.141 36.2712 126.156 36.2377 126.241C36.129 126.517 36.7668 127.372 37.4945 128.113C37.4967 127.619 37.4409 126.773 37.0637 126.362C36.961 126.251 36.8412 126.182 36.7005 126.154C36.6507 126.144 36.5971 126.139 36.5413 126.14Z" fill="#263238"/>
<path d="M69.9442 151.995C69.8162 151.893 69.683 151.688 69.7768 151.298C69.8229 151.109 69.9383 150.959 70.1221 150.85C70.4674 150.646 71.0344 150.626 71.5895 150.672C71.0537 150.393 70.5819 150.053 70.5581 149.71C70.5425 149.486 70.6854 149.298 70.983 149.153C71.2613 149.017 71.5471 149.006 71.8306 149.119C72.7235 149.478 73.292 150.998 73.3173 151.067C73.327 151.092 73.3307 151.12 73.327 151.147C73.3255 151.16 73.3226 151.173 73.3181 151.185C73.3181 151.185 73.3181 151.185 73.3181 151.186C73.3099 151.209 73.2965 151.231 73.2794 151.247C73.2675 151.26 73.2534 151.27 73.2377 151.279C73.2355 151.28 73.2333 151.281 73.2318 151.282C72.8843 151.452 71.4176 152.145 70.5031 152.145C70.2724 152.147 70.0774 152.103 69.9442 151.995ZM70.2977 151.149C70.1965 151.208 70.1362 151.284 70.1131 151.379C70.0506 151.638 70.1332 151.704 70.16 151.725C70.4711 151.975 71.6691 151.6 72.6305 151.18C71.8938 151.025 70.7672 150.87 70.2977 151.149ZM71.1341 149.464C71.0448 149.507 70.8967 149.594 70.9027 149.686C70.9235 149.98 71.8663 150.479 72.8419 150.836C72.632 150.388 72.2175 149.648 71.7011 149.441C71.614 149.406 71.5277 149.389 71.4422 149.389C71.3402 149.388 71.2383 149.413 71.1341 149.464Z" fill="#263238"/>
<path d="M44.591 131.077C44.8031 130.587 38.6737 128.221 38.6737 128.221C38.6737 128.221 33.2922 130.258 29.3476 129.454C25.403 128.65 26.4068 131.703 30.3841 133.537C34.3615 135.371 37.3968 136.771 40.223 138.074C43.0484 139.377 42.3921 136.155 44.591 131.077Z" fill="#263238"/>
<path d="M80.5244 150.462C80.5058 149.928 73.9538 150.426 73.9538 150.426C73.9538 150.426 69.969 154.577 66.0616 155.546C62.1542 156.515 64.3724 158.839 68.7516 158.787C73.1308 158.734 76.4734 158.694 79.5854 158.657C82.6966 158.62 80.7201 155.992 80.5244 150.462Z" fill="#263238"/>
<path d="M127.155 69.7169C127.155 69.7169 106.219 62.3686 103.633 66.9115C103.13 67.7896 102.42 69.568 101.853 71.0972C101.312 72.5371 100.896 73.753 100.896 73.753C100.896 73.753 100.89 73.7515 100.884 73.7433C100.858 73.7314 99.1671 72.9553 99.1671 72.9553L92.1514 93.8891C103.302 100.074 119.07 100.793 125.527 96.3938C136.292 89.0656 127.155 69.7169 127.155 69.7169Z" fill="#0B90AF"/>
<g opacity="0.4">
<path d="M127.155 69.7169C127.155 69.7169 106.219 62.3686 103.633 66.9115C103.13 67.7896 102.42 69.568 101.853 71.0972C101.312 72.5371 100.896 73.753 100.896 73.753C100.896 73.753 100.89 73.7515 100.884 73.7433C100.858 73.7314 99.1671 72.9553 99.1671 72.9553L92.1514 93.8891C103.302 100.074 119.07 100.793 125.527 96.3938C136.292 89.0656 127.155 69.7169 127.155 69.7169Z" fill="white"/>
</g>
<path opacity="0.3" d="M100.897 73.7529L112.978 78.8784C112.978 78.8784 106.776 73.6494 101.854 71.0971C101.314 72.537 100.897 73.7529 100.897 73.7529Z" fill="black"/>
<path d="M103.335 67.4881L103.758 62.3202L127.156 65.4299L127.466 70.4185L103.335 67.4881Z" fill="#0B90AF"/>
<path opacity="0.4" d="M103.335 67.4881L103.758 62.3202L127.156 65.4299L127.466 70.4185L103.335 67.4881Z" fill="white"/>
<path d="M103.804 62.8261L105.025 63.0047L104.646 67.0304L103.634 66.9114L103.804 62.8261Z" fill="#263238"/>
<path d="M106.186 63.168L119.379 65.0878L119.037 68.7489L105.814 67.1714L106.186 63.168Z" fill="#263238"/>
<path d="M127.156 69.7165L120.205 68.8905L120.541 65.2592H120.547L126.821 66.167L127.156 69.7165Z" fill="#263238"/>
<path opacity="0.2" d="M103.804 62.8261L105.025 63.0047L104.646 67.0304L103.634 66.9114L103.804 62.8261Z" fill="black"/>
<path opacity="0.2" d="M106.186 63.168L119.379 65.0878L119.037 68.7489L105.814 67.1714L106.186 63.168Z" fill="black"/>
<path opacity="0.2" d="M127.156 69.7165L120.205 68.8905L120.541 65.2592H120.547L126.821 66.167L127.156 69.7165Z" fill="black"/>
<path d="M109.326 67.6596L113.083 68.1574C113.465 68.208 113.816 67.9394 113.866 67.5576L114.2 65.0417C114.25 64.66 113.982 64.3095 113.6 64.2589L109.842 63.7611C109.46 63.7105 109.11 63.9792 109.059 64.3609L108.726 66.8768C108.675 67.2592 108.944 67.609 109.326 67.6596Z" stroke="white" stroke-miterlimit="10" stroke-linecap="round" stroke-linejoin="round"/>
<path d="M112.023 65.9595L113.348 66.1693" stroke="white" stroke-miterlimit="10" stroke-linecap="round" stroke-linejoin="round"/>
<path d="M98.1647 71.5093L100.116 72.5384L93.5006 95.0237L90.7235 94.473L98.1647 71.5093Z" fill="#0B90AF"/>
<path opacity="0.6" d="M98.1647 71.5093L100.116 72.5384L93.5006 95.0237L90.7235 94.473L98.1647 71.5093Z" fill="white"/>
<path d="M96.6047 48.8062H80.2101C79.5783 48.8062 79.0217 48.292 78.9667 47.6573L76.6845 25.8983C76.6294 25.2635 77.0974 24.7493 77.7292 24.7493H94.1238C94.7556 24.7493 95.3122 25.2635 95.3672 25.8983L97.6502 47.6573C97.7038 48.292 97.2365 48.8062 96.6047 48.8062Z" fill="#263238"/>
<path opacity="0.6" d="M96.6047 48.8062H80.2101C79.5783 48.8062 79.0217 48.292 78.9667 47.6573L76.6845 25.8983C76.6294 25.2635 77.0974 24.7493 77.7292 24.7493H94.1238C94.7556 24.7493 95.3122 25.2635 95.3672 25.8983L97.6502 47.6573C97.7038 48.292 97.2365 48.8062 96.6047 48.8062Z" fill="white"/>
<path opacity="0.2" d="M95.9194 48.8062H80.2101C79.5783 48.8062 79.0217 48.292 78.9667 47.6573L76.6845 25.8983C76.6294 25.2635 77.0974 24.7493 77.7292 24.7493H93.4385C94.0702 24.7493 94.6268 25.2635 94.6819 25.8983L96.9649 47.6573C97.0185 48.292 96.5511 48.8062 95.9194 48.8062Z" fill="white"/>
<path d="M86.3599 34.9991C85.3821 34.9991 84.658 35.7953 84.7429 36.7783C84.8277 37.7606 85.6894 38.5575 86.6679 38.5575C87.6465 38.5575 88.3697 37.7613 88.2849 36.7783C87.3064 36.7783 86.4447 35.9814 86.3599 34.9991Z" fill="#263238"/>
<path opacity="0.3" d="M89.9083 26.4772H81.2489C80.8262 26.4772 80.4229 26.2182 80.2324 25.8231L79.7138 24.7493H91.1443L90.8109 25.8231C90.6896 26.2182 90.331 26.4772 89.9083 26.4772Z" fill="black"/>
<path d="M131.71 76.2796H128.666C128.666 76.2796 124.864 64.8647 122.646 55.1911C121.984 52.3411 121.471 49.6399 121.225 47.4298C120.86 44.1482 121.27 41.2313 121.962 38.8129C123.331 34.0579 125.816 31.2079 125.816 31.2079L125.199 31.1707C130.958 31.1111 134.069 33.1054 134.456 36.6921C134.85 40.2713 128.473 61.5608 128.175 64.4034C127.886 67.2534 131.71 76.2796 131.71 76.2796Z" fill="#0B90AF"/>
<path d="M112.052 30.7679C112.052 30.7679 105.962 40.3657 104.331 44.4487C102.699 48.5317 103.635 60.2063 103.635 60.2063C103.635 60.2063 100.517 46.1535 102.524 39.1862C104.529 32.2197 107.995 30.788 112.052 30.7679Z" fill="#0B90AF"/>
<path d="M132.923 39.4197C131.062 42.2087 129.12 44.7142 126.782 47.169C125.606 48.3887 124.366 49.5733 122.795 50.6917C121.998 51.2461 121.14 51.8072 119.921 52.2529C119.307 52.4695 118.581 52.6659 117.676 52.6934C117.211 52.6964 116.725 52.6666 116.202 52.532C115.96 52.4784 115.656 52.3683 115.463 52.2916L115.075 52.1123C114.055 51.6241 113.258 51.0742 112.529 50.5027C111.801 49.932 111.149 49.3456 110.536 48.7481C109.308 47.5523 108.233 46.3021 107.212 45.0334C105.178 42.481 103.432 39.8387 101.843 37.011C101.342 36.1188 101.658 34.9899 102.551 34.4891C103.301 34.0679 104.219 34.225 104.79 34.8165L104.828 34.8575C106.931 37.037 109.118 39.2285 111.298 41.2532C112.39 42.266 113.508 43.2304 114.62 44.0861C115.706 44.9381 116.906 45.6867 117.744 45.9866L117.891 46.0387C117.882 46.0238 117.76 45.9866 117.71 45.9688C117.565 45.933 117.471 45.9107 117.394 45.9115C117.267 45.8988 117.303 45.8944 117.413 45.8304C117.644 45.7039 118.102 45.4069 118.549 45.0326C119.463 44.2744 120.434 43.2505 121.37 42.1894C123.228 40.0485 125.083 37.6055 126.754 35.2742L126.812 35.1931C128.008 33.5255 130.33 33.143 131.997 34.3388C133.628 35.5086 134.026 37.761 132.923 39.4197Z" fill="#E9B376"/>
<path opacity="0.2" d="M132.112 42.1759C132.112 42.1759 126.754 51.3138 122.646 55.1907C121.984 52.3407 121.471 49.6395 121.225 47.4294C120.86 44.1478 121.27 41.2309 121.962 38.8125C123.666 37.4135 125.348 36.022 126.203 35.3151C128.317 33.5515 132.112 42.1759 132.112 42.1759Z" fill="black"/>
<path d="M132.495 33.7201C135.299 35.2314 134.45 39.2847 130.774 44.0932C127.098 48.901 120.445 55.395 116.952 54.2089C113.458 53.0228 109.503 48.3772 109.503 48.3772L112.051 41.174C112.051 41.174 117.063 44.9765 118.107 44.7801C119.15 44.5836 124.25 37.9832 125.724 35.9354C127.196 33.8875 129.453 32.0808 132.495 33.7201Z" fill="#0B90AF"/>
<path d="M80.2002 34.1445L80.0938 35.5725C80.0365 36.336 79.4583 36.9588 78.7008 37.0712L76.7601 37.3591L77.2185 32.1197L78.84 32.4077C79.6734 32.5491 80.2627 33.3014 80.2002 34.1445Z" fill="#FFB573"/>
</svg>
