<svg width="74" height="74" viewBox="0 0 74 74" fill="none" xmlns="http://www.w3.org/2000/svg">
<g clip-path="url(#clip0_21_898)">
<path d="M29.5467 0.00292969H12.7413V10.2508L29.5467 7.4499V0.00292969ZM66.5439 69.6615V21.1442H39.168V69.6615H34.832V10.9649L7.45608 15.5275V69.6615H0V73.9974H74V69.6615H66.5439ZM55.8385 27.3789H60.444V31.7148H55.8385V27.3789ZM55.8385 37.9496H60.444V42.2855H55.8385V37.9496ZM55.8385 48.5202H60.444V52.8561H55.8385V48.5202ZM55.8385 59.0909H60.444V63.4268H55.8385V59.0909ZM45.2679 27.3789H49.8734V31.7148H45.2679V27.3789ZM45.2679 37.9496H49.8734V42.2855H45.2679V37.9496ZM45.2679 48.5202H49.8734V52.8561H45.2679V48.5202ZM45.2679 59.0909H49.8734V63.4268H45.2679V59.0909ZM24.1266 16.8083H28.7321V21.1442H24.1266V16.8083ZM24.1266 27.3789H28.7321V31.7148H24.1266V27.3789ZM24.1266 37.9496H28.7321V42.2855H24.1266V37.9496ZM24.1266 48.5202H28.7321V52.8561H24.1266V48.5202ZM13.556 27.3789H18.1615V31.7148H13.556V27.3789ZM13.556 37.9496H18.1615V42.2855H13.556V37.9496ZM13.556 48.5202H18.1615V52.8561H13.556V48.5202ZM13.6907 59.0909H28.5974V69.6615H24.2614V63.4268H18.0267V69.6615H13.6907V59.0909Z" fill="#FF9633"/>
</g>
<defs>
<clipPath id="clip0_21_898">
<rect width="74" height="74" fill="white"/>
</clipPath>
</defs>
</svg>
