<svg width="74" height="74" viewBox="0 0 74 74" fill="none" xmlns="http://www.w3.org/2000/svg">
<path d="M32.3884 5.32812H6.29384C5.61163 5.32812 5.05859 5.88116 5.05859 6.56337V32.6579C5.05859 33.3401 5.61163 33.8932 6.29384 33.8932H32.3884C33.0706 33.8932 33.6237 33.3401 33.6237 32.6579V6.56337C33.6237 5.88116 33.0706 5.32812 32.3884 5.32812Z" fill="#FF9633"/>
<path d="M67.7063 5.32812H41.6117C40.9295 5.32812 40.3765 5.88116 40.3765 6.56337V32.6579C40.3765 33.3401 40.9295 33.8932 41.6117 33.8932H67.7063C68.3885 33.8932 68.9415 33.3401 68.9415 32.6579V6.56337C68.9415 5.88116 68.3885 5.32812 67.7063 5.32812Z" fill="#FF9633"/>
<path d="M32.3884 40.1172H6.29384C5.61163 40.1172 5.05859 40.6702 5.05859 41.3524V67.447C5.05859 68.1292 5.61163 68.6822 6.29384 68.6822H32.3884C33.0706 68.6822 33.6237 68.1292 33.6237 67.447V41.3524C33.6237 40.6702 33.0706 40.1172 32.3884 40.1172Z" fill="#FF9633"/>
<path d="M67.7063 40.1172H41.6117C40.9295 40.1172 40.3765 40.6702 40.3765 41.3524V67.447C40.3765 68.1292 40.9295 68.6822 41.6117 68.6822H67.7063C68.3885 68.6822 68.9415 68.1292 68.9415 67.447V41.3524C68.9415 40.6702 68.3885 40.1172 67.7063 40.1172Z" fill="#FF9633"/>
</svg>
