<svg width="30" height="30" viewBox="0 0 30 30" fill="none" xmlns="http://www.w3.org/2000/svg">
<path d="M29.9997 14.9922C29.9997 19.6587 27.8689 23.8287 24.5237 26.5858C21.9346 28.709 18.62 29.9921 14.9999 29.9921C11.3874 29.9921 8.07274 28.7166 5.48366 26.5858C2.13848 23.8363 0 19.6663 0 14.9922C0 6.71327 6.72092 0 14.9999 0C23.2864 0 29.9997 6.71327 29.9997 14.9922Z" fill="#0B90AF"/>
<path opacity="0.7" d="M29.9997 14.9922C29.9997 19.6587 27.8689 23.8287 24.5237 26.5858C21.9346 28.709 18.62 29.9921 14.9999 29.9921C11.3874 29.9921 8.07274 28.7166 5.48366 26.5858C2.13848 23.8363 0 19.6663 0 14.9922C0 6.71327 6.72092 0 14.9999 0C23.2864 0 29.9997 6.71327 29.9997 14.9922Z" fill="white"/>
<path d="M15.0001 18.954C17.9667 18.954 20.3715 16.5492 20.3715 13.5826C20.3715 10.6161 17.9667 8.21125 15.0001 8.21125C12.0336 8.21125 9.62875 10.6161 9.62875 13.5826C9.62875 16.5492 12.0336 18.954 15.0001 18.954Z" fill="white"/>
<path d="M24.5236 26.5851C21.9345 28.7083 18.6199 29.9914 14.9997 29.9914C11.3872 29.9914 8.0726 28.7159 5.48353 26.5851C6.88881 22.4686 9.78338 19.4289 13.2584 18.6575C13.8236 18.5353 14.404 18.4666 14.9997 18.4666C15.5954 18.4666 16.1759 18.5353 16.7411 18.6575C20.2237 19.4289 23.1106 22.4686 24.5236 26.5851Z" fill="white"/>
</svg>
