<svg width="27" height="204" viewBox="0 0 27 204" fill="none" xmlns="http://www.w3.org/2000/svg">
<path d="M22.332 7.88464L19.7787 32.4089H6.99735L4.44405 7.88464H22.332Z" fill="#263238"/>
<path opacity="0.3" d="M22.332 7.88464L19.7787 32.4089H6.99735L4.44405 7.88464H22.332Z" fill="white"/>
<path d="M15.7671 27.1347H11.0107V203.999H15.7671V27.1347Z" fill="#263238"/>
<path opacity="0.3" d="M15.7671 27.1347H11.0107V203.999H15.7671V27.1347Z" fill="white"/>
<path d="M18.4343 30.9124H8.34283L6.1031 9.37513H20.674L18.4343 30.9124Z" fill="#0B90AF"/>
<path opacity="0.4" d="M18.4343 30.9124H8.34283L6.1031 9.37513H20.674L18.4343 30.9124Z" fill="white"/>
<path d="M12.0622 31.2489H11.3731L10.6265 8.62841H11.3156L12.0622 31.2489Z" fill="#263238"/>
<path opacity="0.3" d="M12.0622 31.2489H11.3731L10.6265 8.62841H11.3156L12.0622 31.2489Z" fill="white"/>
<path opacity="0.2" d="M22.3329 7.88464L19.7796 32.4089H11.7464L10.7833 7.88464H22.3329Z" fill="white"/>
<path d="M13.3891 0C13.3891 0 5.80837 7.48218 0 7.48218L1.80224 8.66327H13.3891H24.976L26.7782 7.48218C20.9699 7.48218 13.3891 0 13.3891 0Z" fill="#263238"/>
<path opacity="0.4" d="M26.7742 7.48168L24.9749 8.66128H1.80121L0.00195989 7.48168C5.81033 7.48168 13.3881 0.000979945 13.3881 0.000979945C13.3881 0.000979945 20.9658 7.48168 26.7742 7.48168Z" fill="white"/>
<path opacity="0.2" d="M26.7745 7.48168L24.9752 8.66128H9.92423C9.46882 7.92216 9.14778 7.38462 9.14778 7.38462C13.1868 5.51072 13.3883 0.000979945 13.3883 0.000979945C13.3883 0.000979945 20.9661 7.48168 26.7745 7.48168Z" fill="white"/>
<path d="M17.4712 200.727H9.3066C8.28677 200.727 7.46032 201.553 7.46032 202.573V204H19.3167V202.573C19.3167 201.553 18.4902 200.727 17.4712 200.727Z" fill="#263238"/>
<path opacity="0.5" d="M17.4712 200.727H9.3066C8.28677 200.727 7.46032 201.553 7.46032 202.573V204H19.3167V202.573C19.3167 201.553 18.4902 200.727 17.4712 200.727Z" fill="white"/>
</svg>
