<svg width="74" height="74" viewBox="0 0 74 74" fill="none" xmlns="http://www.w3.org/2000/svg">
<path d="M73.4863 27.1957C73.3104 26.6836 72.6869 26.2854 72.1664 26.2854H65.4046C64.8843 26.2854 64.2606 26.6836 64.0846 27.1957C63.9124 27.6969 63.7838 28.1441 63.6983 28.5647L59.1816 16.0689C58.4366 14.0084 56.4636 12.624 54.2728 12.624H19.7275C17.5364 12.624 15.5638 14.0084 14.8185 16.0693L10.3016 28.5662C10.2159 28.1453 10.0873 27.6975 9.91493 27.1957C9.73905 26.6836 9.11539 26.2854 8.59506 26.2854H1.8333C1.31296 26.2854 0.689306 26.6836 0.513423 27.1957C-0.17136 29.1895 -0.170985 30.3309 0.51361 32.3248C0.689494 32.8369 1.31315 33.2352 1.83349 33.2352H8.59524C8.60162 33.2352 8.60837 33.2335 8.61493 33.2333L8.51293 33.5159C7.13417 33.974 6.13869 35.2719 6.13869 36.8046V59.7099C6.13866 59.9288 6.18175 60.1455 6.26549 60.3477C6.34922 60.5499 6.47197 60.7336 6.62671 60.8883C6.78145 61.043 6.96516 61.1658 7.16735 61.2495C7.36954 61.3333 7.58624 61.3764 7.80508 61.3763H16.1918C16.6337 61.3763 17.0576 61.2008 17.3701 60.8883C17.6826 60.5757 17.8582 60.1519 17.8582 59.7099V51.5979H56.1419V59.7099C56.1419 60.1519 56.3174 60.5757 56.6299 60.8883C56.9425 61.2008 57.3663 61.3763 57.8083 61.3763H66.195C66.4138 61.3764 66.6305 61.3333 66.8327 61.2495C67.0349 61.1658 67.2186 61.043 67.3733 60.8883C67.5281 60.7336 67.6508 60.5499 67.7346 60.3477C67.8183 60.1455 67.8614 59.9288 67.8614 59.7099V36.8046C67.8614 35.2723 66.8662 33.9745 65.4881 33.5161L65.3859 33.2333C65.3921 33.2335 65.3986 33.235 65.4048 33.235H72.1666C72.6871 33.235 73.3106 32.8367 73.4864 32.3246C74.171 30.3309 74.1707 29.1895 73.4863 27.1957ZM20.3655 18.7563H53.63L58.9005 33.3374H15.0952L20.3655 18.7563ZM21.2933 43.6093H14.2771C12.7718 43.6093 11.5517 42.3892 11.5517 40.8839C11.5517 39.3787 12.7716 38.1584 14.2771 38.1584H21.2933C22.7985 38.1584 24.0188 39.3785 24.0188 40.8839C24.019 42.3892 22.7985 43.6093 21.2933 43.6093ZM59.7224 43.6093H52.7061C51.201 43.6093 49.9807 42.3892 49.9807 40.8839C49.9807 39.3787 51.201 38.1584 52.7061 38.1584H59.7224C61.2277 38.1584 62.4478 39.3785 62.4478 40.8839C62.4478 42.3892 61.2277 43.6093 59.7224 43.6093Z" fill="#FF9633"/>
</svg>
