<svg width="27" height="27" viewBox="0 0 27 27" fill="none" xmlns="http://www.w3.org/2000/svg">
<path d="M13.5 26.2358C20.5338 26.2358 26.2358 20.5338 26.2358 13.5C26.2358 6.46618 20.5338 0.764151 13.5 0.764151C6.46618 0.764151 0.764151 6.46618 0.764151 13.5C0.764151 20.5338 6.46618 26.2358 13.5 26.2358Z" stroke="black" stroke-width="1.5" stroke-linecap="round" stroke-linejoin="round"/>
<path d="M8.40566 2.03774H9.67925C7.19575 9.47547 7.19575 17.5245 9.67925 24.9623H8.40566" stroke="black" stroke-width="1.5" stroke-linecap="round" stroke-linejoin="round"/>
<path d="M17.3208 2.03774C19.8042 9.47547 19.8042 17.5245 17.3208 24.9623" stroke="black" stroke-width="1.5" stroke-linecap="round" stroke-linejoin="round"/>
<path d="M2.03774 18.5943V17.3208C9.47547 19.8042 17.5245 19.8042 24.9623 17.3208V18.5943" stroke="black" stroke-width="1.5" stroke-linecap="round" stroke-linejoin="round"/>
<path d="M2.03774 9.67925C9.47547 7.19575 17.5245 7.19575 24.9623 9.67925" stroke="black" stroke-width="1.5" stroke-linecap="round" stroke-linejoin="round"/>
</svg>
