<svg width="372" height="258" viewBox="0 0 372 258" fill="none" xmlns="http://www.w3.org/2000/svg">
<path d="M372 243.62H0V243.806H372V243.62Z" fill="#EBEBEB"/>
<path d="M334.727 255.596H310.084V255.782H334.727V255.596Z" fill="#EBEBEB"/>
<path d="M246.428 257.614H239.96V257.8H246.428V257.614Z" fill="#EBEBEB"/>
<path d="M309.338 248.687H295.06V248.873H309.338V248.687Z" fill="#EBEBEB"/>
<path d="M71.1649 249.937H39.0293V250.123H71.1649V249.937Z" fill="#EBEBEB"/>
<path d="M82.5018 249.937H77.79V250.123H82.5018V249.937Z" fill="#EBEBEB"/>
<path d="M167.509 253.078H97.8145V253.264H167.509V253.078Z" fill="#EBEBEB"/>
<path d="M176.338 210.439H32.6725C30.3312 210.439 28.4258 208.534 28.4258 206.192V4.24675C28.4258 1.90538 30.3312 0 32.6725 0H176.338C178.679 0 180.584 1.90538 180.584 4.24675V206.192C180.584 208.534 178.679 210.439 176.338 210.439ZM32.6725 0.186744C30.4331 0.186744 28.6118 2.00806 28.6118 4.2475V206.193C28.6118 208.432 30.4331 210.254 32.6725 210.254H176.338C178.577 210.254 180.398 208.432 180.398 206.193V4.24675C180.398 2.00806 178.577 0.186 176.338 0.186L32.6725 0.186744Z" fill="#EBEBEB"/>
<path d="M337.262 210.439H193.598C191.256 210.439 189.352 208.534 189.352 206.192V4.24675C189.352 1.90538 191.257 0 193.598 0H337.262C339.605 0 341.509 1.90538 341.509 4.24675V206.192C341.51 208.534 339.605 210.439 337.262 210.439ZM193.598 0.186744C191.359 0.186744 189.538 2.00806 189.538 4.2475V206.193C189.538 208.432 191.359 210.254 193.598 210.254H337.262C339.502 210.254 341.323 208.432 341.323 206.193V4.24675C341.323 2.00806 339.502 0.186 337.262 0.186L193.598 0.186744Z" fill="#EBEBEB"/>
<path d="M60.6798 230.929C60.5035 228.803 60.7929 226.049 63.2741 225.23C67.4792 223.844 69.9738 220.587 69.8332 216.904C69.6926 213.22 74.1187 209.636 77.4384 213.088C80.7581 216.54 80.3154 210.433 84.7422 208.95C89.1683 207.465 92.9203 211.065 91.7083 214.356C90.4963 217.646 94.8644 219.702 100.095 216.904C105.325 214.105 111.079 219.196 109.973 223.179C108.866 227.163 109.772 227.606 113.081 226.278C115.755 225.205 120.131 227.457 120.619 230.929H60.6798Z" fill="#E0E0E0"/>
<path d="M269.381 230.929C269.176 229.245 269.267 226.789 271.355 226.101C274.619 225.024 276.555 222.496 276.446 219.637C276.337 216.777 279.774 213.995 282.351 216.675C284.928 219.355 284.584 214.614 288.021 213.462C291.457 212.311 294.369 215.105 293.429 217.659C292.488 220.213 295.879 221.808 299.939 219.637C303.999 217.465 308.466 221.416 307.607 224.508C306.748 227.601 307.452 227.945 310.021 226.914C312.199 226.04 315.817 228.009 315.893 230.929H269.381Z" fill="#E0E0E0"/>
<path d="M290.772 230.929H214.355C213.28 227.343 216.06 223.042 219.087 222.436C222.807 221.692 226.547 215.146 226.723 210.979C226.899 206.812 233.595 193.994 244.011 201.91C254.427 209.825 251.262 203.076 258.797 200.852C266.331 198.628 271.085 205.027 267.779 209.825C267.779 209.825 275.348 207.928 278.466 214.996C281.584 222.064 278.466 226.454 278.466 226.454C278.466 226.454 288.033 226.175 290.772 230.929Z" fill="#E0E0E0"/>
<path d="M151.964 30.3682C151.964 28.3832 150.355 26.7747 148.37 26.7747C148.012 26.7747 147.666 26.829 147.338 26.9265C147.391 26.5664 147.419 26.1981 147.419 25.8231C147.419 21.6203 144.011 18.2127 139.808 18.2127C139.329 18.2127 138.861 18.2589 138.407 18.3437C137.237 16.4294 135.135 15.1475 132.727 15.1475C129.083 15.1475 126.127 18.0751 126.073 21.7066C126.036 21.7058 126 21.7014 125.963 21.7014C122.577 21.7014 119.832 24.446 119.832 27.8319C119.832 31.2179 122.577 33.9625 125.963 33.9625H148.477L148.472 33.9573C150.409 33.903 151.964 32.319 151.964 30.3682Z" fill="#F5F5F5"/>
<path d="M285.313 51.5577C285.313 49.5727 283.703 47.9641 281.719 47.9641C281.36 47.9641 281.014 48.0185 280.687 48.1159C280.739 47.7558 280.767 47.3875 280.767 47.0126C280.767 42.8097 277.36 39.4022 273.157 39.4022C272.678 39.4022 272.21 39.4483 271.755 39.5331C270.586 37.6188 268.483 36.3369 266.076 36.3369C262.432 36.3369 259.476 39.2646 259.422 42.896C259.385 42.8953 259.348 42.8908 259.311 42.8908C255.925 42.8908 253.181 45.6354 253.181 49.0214C253.181 52.4073 255.925 55.1519 259.311 55.1519H281.825L281.821 55.1467C283.758 55.0924 285.313 53.5084 285.313 51.5577Z" fill="#F5F5F5"/>
<path d="M203.757 41.1348C203.757 39.9005 202.757 38.9006 201.523 38.9006C201.3 38.9006 201.085 38.9341 200.882 38.9951C200.915 38.7711 200.932 38.542 200.932 38.3091C200.932 35.6962 198.814 33.578 196.201 33.578C195.903 33.578 195.611 33.607 195.329 33.6591C194.602 32.4687 193.295 31.6719 191.798 31.6719C189.532 31.6719 187.694 33.4924 187.661 35.7497C187.638 35.7497 187.616 35.746 187.592 35.746C185.487 35.746 183.78 37.4528 183.78 39.5575C183.78 41.6623 185.487 43.369 187.592 43.369H201.589L201.586 43.3661C202.791 43.3326 203.757 42.3475 203.757 41.1348Z" fill="#F5F5F5"/>
<path d="M320.472 36.7686C320.472 35.5343 319.472 34.5344 318.238 34.5344C318.015 34.5344 317.8 34.5679 317.597 34.6289C317.629 34.4049 317.647 34.1758 317.647 33.9429C317.647 31.33 315.528 29.2118 312.915 29.2118C312.618 29.2118 312.326 29.2408 312.043 29.2929C311.317 28.1025 310.009 27.3057 308.512 27.3057C306.247 27.3057 304.409 29.1262 304.376 31.3835C304.353 31.3835 304.33 31.3798 304.307 31.3798C302.202 31.3798 300.495 33.0865 300.495 35.1913C300.495 37.2961 302.202 39.0028 304.307 39.0028H318.304L318.301 38.9999C319.506 38.9664 320.472 37.9821 320.472 36.7686Z" fill="#F5F5F5"/>
<path d="M78.0631 50.2725C78.0631 49.0382 77.0624 48.0383 75.8288 48.0383C75.6056 48.0383 75.3906 48.0718 75.1875 48.1328C75.2203 47.9088 75.2374 47.6797 75.2374 47.4468C75.2374 44.8339 73.1192 42.715 70.5063 42.715C70.2087 42.715 69.917 42.744 69.6343 42.7968C68.9074 41.6064 67.6002 40.8096 66.1033 40.8096C63.8378 40.8096 62.0001 42.6301 61.9666 44.8874C61.9436 44.8867 61.9213 44.8837 61.8975 44.8837C59.7927 44.8837 58.0859 46.5904 58.0859 48.6952C58.0859 50.8 59.7927 52.5067 61.8975 52.5067H75.8943L75.8913 52.5038C77.0966 52.4695 78.0631 51.4852 78.0631 50.2725Z" fill="#F5F5F5"/>
<path d="M283.276 113.983C283.389 113.573 283.457 113.103 283.487 112.586C283.659 109.689 286.426 110.148 288.779 109.754C290.617 109.447 285.749 104.803 289.456 103.304C290.144 103.026 290.893 102.711 291.244 102.057C291.71 101.193 291.239 100.054 290.437 99.4875C289.635 98.9206 288.605 98.8001 287.623 98.7815C287.018 98.0464 287.51 96.9401 288.095 96.1894C288.68 95.4387 289.397 94.5846 289.175 93.6591C288.841 92.2611 286.888 92.2112 285.476 92.4828C284.955 91.6383 284.965 90.5826 284.712 89.6228C284.459 88.6631 283.696 87.6557 282.711 87.7762C281.783 87.8893 281.215 88.9369 280.305 89.1519C279.248 89.4011 278.333 88.4659 277.504 87.7651C276.675 87.0635 275.225 86.626 274.654 87.5501C274.312 88.1029 274.517 88.8736 274.161 89.4182C273.545 90.3616 272.086 89.7761 271.179 89.1073C270.272 88.4384 268.828 87.832 268.19 88.7613C267.994 89.0455 267.952 89.4041 267.839 89.7307C267.41 90.9687 266.072 91.5848 265.03 92.3786C263.988 93.1725 263.163 94.7512 264.045 95.7199C264.48 96.1983 265.245 96.3918 265.461 97.0004C265.731 97.7615 264.954 98.443 264.338 98.9667C263.314 99.838 263.129 102.445 264.483 103.158C265.051 103.457 265.885 103.549 266.024 104.176C266.149 104.737 265.58 105.173 265.202 105.605C264.164 106.793 264.603 108.93 266.026 109.612C266.351 109.767 266.75 109.895 266.871 110.235C266.957 110.479 266.863 110.744 266.794 110.992C266.662 111.462 266.617 111.957 266.663 112.443C266.679 112.609 266.713 112.79 266.84 112.898C266.955 112.997 267.117 113.012 267.269 113.019C269.225 113.106 270.168 112.414 271.362 114.115C271.476 114.279 271.597 114.447 271.769 114.548C271.93 114.642 272.122 114.667 272.308 114.682C273.653 114.793 274.531 113.954 275.76 113.798C277.464 113.58 277.825 114.459 279.327 115.165C281.688 116.277 282.833 115.592 283.276 113.983Z" fill="#EBEBEB"/>
<path d="M260.754 111.549C260.868 111.139 260.935 110.67 260.966 110.152C261.138 107.255 263.904 107.714 266.257 107.32C268.096 107.013 263.228 102.369 266.934 100.871C267.622 100.592 268.371 100.278 268.723 99.6237C269.188 98.7592 268.717 97.6209 267.915 97.0532C267.113 96.4863 266.083 96.3658 265.101 96.3479C264.496 95.6128 264.988 94.5065 265.573 93.7558C266.159 93.0051 266.875 92.151 266.654 91.2255C266.319 89.8282 264.366 89.7776 262.954 90.0492C262.433 89.2048 262.443 88.149 262.19 87.1893C261.937 86.2295 261.174 85.2221 260.189 85.3426C259.261 85.4557 258.694 86.5033 257.784 86.7183C256.726 86.9675 255.811 86.0323 254.983 85.3315C254.154 84.6299 252.704 84.1924 252.132 85.1165C251.79 85.6693 251.995 86.44 251.64 86.9847C251.024 87.928 249.563 87.3425 248.657 86.6737C247.75 86.0048 246.306 85.3985 245.668 86.3277C245.473 86.6119 245.43 86.9705 245.317 87.2971C244.888 88.5351 243.55 89.1512 242.508 89.945C241.466 90.7389 240.64 92.3176 241.522 93.2863C241.957 93.764 242.722 93.9574 242.939 94.5668C243.209 95.3279 242.431 96.0101 241.816 96.5331C240.791 97.4044 240.606 100.011 241.96 100.724C242.529 101.023 243.363 101.115 243.502 101.743C243.627 102.304 243.058 102.74 242.68 103.172C241.641 104.359 242.081 106.497 243.503 107.179C243.828 107.335 244.228 107.463 244.349 107.803C244.435 108.046 244.34 108.311 244.271 108.559C244.139 109.029 244.095 109.524 244.141 110.01C244.157 110.177 244.191 110.357 244.317 110.465C244.433 110.564 244.595 110.579 244.747 110.586C246.703 110.673 247.645 109.981 248.839 111.682C248.954 111.846 249.074 112.014 249.246 112.115C249.408 112.209 249.6 112.234 249.786 112.249C251.13 112.36 252.009 111.521 253.237 111.365C254.942 111.148 255.303 112.026 256.805 112.732C259.166 113.843 260.311 113.159 260.754 111.549Z" fill="#EBEBEB"/>
<path d="M258.585 97.2075C258.698 96.7976 258.766 96.3281 258.796 95.8103C258.968 92.9131 261.734 93.3722 264.087 92.9786C265.926 92.6713 261.058 88.0273 264.764 86.5289C265.453 86.2506 266.201 85.9359 266.553 85.2819C267.019 84.4174 266.548 83.2791 265.746 82.7122C264.944 82.1452 263.913 82.0247 262.931 82.0061C262.326 81.271 262.818 80.1647 263.404 79.414C263.989 78.6633 264.706 77.8092 264.484 76.8837C264.149 75.4864 262.196 75.4358 260.785 75.7074C260.263 74.8629 260.274 73.8072 260.021 72.8475C259.768 71.8877 259.004 70.8803 258.019 71.0008C257.092 71.1139 256.524 72.1622 255.614 72.3765C254.557 72.6257 253.642 71.6905 252.813 70.9897C251.984 70.2881 250.534 69.8506 249.963 70.7747C249.62 71.3275 249.826 72.0983 249.47 72.6429C248.854 73.5863 247.394 73.0007 246.487 72.3319C245.58 71.663 244.136 71.0566 243.499 71.9859C243.303 72.2701 243.261 72.6287 243.148 72.9553C242.718 74.1934 241.381 74.8094 240.339 75.6032C239.297 76.3971 238.471 77.9759 239.353 78.9445C239.788 79.4222 240.553 79.6156 240.77 80.225C241.04 80.9861 240.262 81.6676 239.647 82.1914C238.623 83.0626 238.437 85.6696 239.791 86.3823C240.36 86.6814 241.194 86.7736 241.333 87.4008C241.458 87.9618 240.889 88.3978 240.511 88.8301C239.472 90.0175 239.912 92.155 241.334 92.8372C241.66 92.9927 242.059 93.1207 242.18 93.4607C242.266 93.704 242.171 93.9689 242.102 94.2174C241.971 94.6876 241.926 95.1823 241.972 95.6682C241.988 95.8348 242.022 96.0149 242.148 96.1235C242.263 96.2225 242.426 96.2373 242.578 96.2448C244.533 96.3318 245.476 95.6399 246.67 97.3414C246.785 97.5051 246.905 97.6733 247.077 97.7737C247.239 97.8674 247.431 97.8927 247.617 97.9084C248.961 98.0192 249.84 97.18 251.068 97.0237C252.773 96.8065 253.134 97.6852 254.636 98.3912C256.996 99.5013 258.141 98.8168 258.585 97.2075Z" fill="#EBEBEB"/>
<path d="M243.749 104.351C243.862 103.941 243.929 103.471 243.96 102.954C244.132 100.056 246.898 100.516 249.251 100.122C251.09 99.8151 246.222 95.1711 249.928 93.6727C250.616 93.3944 251.365 93.0797 251.717 92.4257C252.183 91.5612 251.712 90.4229 250.91 89.8559C250.108 89.289 249.077 89.1685 248.095 89.1506C247.49 88.4156 247.982 87.3092 248.568 86.5585C249.152 85.8078 249.87 84.9537 249.648 84.0282C249.313 82.6302 247.36 82.5804 245.949 82.8519C245.427 82.0075 245.438 80.9517 245.185 79.992C244.932 79.0322 244.168 78.0248 243.183 78.1454C242.255 78.2585 241.688 79.3068 240.778 79.521C239.721 79.7703 238.805 78.8351 237.977 78.1342C237.148 77.4326 235.698 76.9952 235.126 77.9192C234.784 78.472 234.99 79.2428 234.634 79.7874C234.018 80.7308 232.558 80.1452 231.651 79.4764C230.744 78.8075 229.3 78.2012 228.663 79.1304C228.467 79.4146 228.424 79.7733 228.311 80.0999C227.882 81.3379 226.544 81.9539 225.502 82.7478C224.46 83.5416 223.635 85.1204 224.516 86.0891C224.951 86.5667 225.716 86.7609 225.933 87.3695C226.203 88.1306 225.425 88.8128 224.81 89.3359C223.786 90.2071 223.6 92.8141 224.954 93.5268C225.523 93.8259 226.357 93.9182 226.496 94.5454C226.621 95.1064 226.052 95.5423 225.674 95.9746C224.635 97.162 225.075 99.2995 226.497 99.981C226.823 100.137 227.222 100.265 227.343 100.605C227.429 100.848 227.334 101.113 227.265 101.361C227.134 101.831 227.089 102.326 227.135 102.812C227.151 102.979 227.185 103.159 227.311 103.267C227.427 103.366 227.589 103.381 227.741 103.388C229.696 103.475 230.639 102.783 231.833 104.484C231.948 104.648 232.068 104.816 232.24 104.917C232.402 105.011 232.594 105.036 232.78 105.051C234.124 105.162 235.003 104.323 236.231 104.167C237.936 103.95 238.297 104.828 239.799 105.534C242.16 106.644 243.305 105.96 243.749 104.351Z" fill="#EBEBEB"/>
<path d="M228.754 101.051C228.868 100.641 228.935 100.172 228.966 99.654C229.138 96.7562 231.904 97.216 234.257 96.8224C236.096 96.5151 231.228 91.871 234.934 90.3726C235.622 90.0944 236.371 89.7797 236.723 89.1257C237.188 88.2612 236.718 87.1228 235.915 86.5559C235.113 85.989 234.083 85.8685 233.101 85.8506C232.496 85.1155 232.988 84.0092 233.573 83.2585C234.158 82.5078 234.875 81.6537 234.654 80.7282C234.319 79.3309 232.366 79.2803 230.954 79.5519C230.433 78.7075 230.443 77.6517 230.19 76.692C229.937 75.7322 229.174 74.7248 228.189 74.8454C227.261 74.9584 226.694 76.0067 225.784 76.221C224.726 76.4703 223.811 75.535 222.983 74.8342C222.154 74.1334 220.704 73.6951 220.132 74.6192C219.79 75.172 219.995 75.9428 219.64 76.4874C219.024 77.4308 217.564 76.8452 216.657 76.1764C215.75 75.5075 214.306 74.9012 213.668 75.8304C213.473 76.1146 213.43 76.4732 213.317 76.7998C212.888 78.0379 211.55 78.6539 210.508 79.4477C209.466 80.2416 208.64 81.8204 209.522 82.789C209.957 83.2667 210.722 83.4609 210.939 84.0695C211.209 84.8306 210.431 85.5128 209.816 86.0359C208.791 86.9071 208.606 89.5141 209.96 90.2268C210.529 90.5259 211.363 90.6182 211.502 91.2453C211.627 91.8063 211.058 92.2423 210.68 92.6746C209.642 93.862 210.081 95.9995 211.503 96.681C211.828 96.8365 212.228 96.9645 212.349 97.3045C212.435 97.5478 212.34 97.8126 212.271 98.0611C212.139 98.5313 212.095 99.0261 212.141 99.5119C212.157 99.6786 212.191 99.8586 212.317 99.9673C212.432 100.066 212.595 100.081 212.747 100.088C214.703 100.175 215.645 99.4829 216.839 101.184C216.954 101.348 217.074 101.516 217.247 101.617C217.408 101.71 217.6 101.736 217.786 101.751C219.131 101.862 220.01 101.023 221.238 100.867C222.942 100.65 223.303 101.528 224.805 102.234C227.166 103.344 228.311 102.661 228.754 101.051Z" fill="#EBEBEB"/>
<path d="M228.559 117.091C228.648 116.768 228.701 116.398 228.725 115.991C228.86 113.71 231.039 114.071 232.891 113.761C234.339 113.52 230.506 109.863 233.425 108.683C233.967 108.463 234.556 108.216 234.833 107.701C235.2 107.02 234.829 106.123 234.198 105.677C233.566 105.231 232.755 105.136 231.981 105.121C231.505 104.542 231.893 103.671 232.353 103.081C232.814 102.489 233.379 101.816 233.204 101.088C232.941 99.9877 231.402 99.9483 230.291 100.162C229.88 99.4967 229.889 98.6656 229.689 97.9097C229.49 97.1538 228.889 96.3607 228.113 96.4552C227.383 96.5445 226.936 97.3696 226.219 97.5385C225.387 97.7349 224.666 96.9983 224.013 96.4463C223.361 95.8942 222.219 95.5498 221.769 96.2766C221.5 96.7119 221.661 97.319 221.382 97.7475C220.897 98.4908 219.747 98.0295 219.033 97.5028C218.319 96.976 217.182 96.4984 216.68 97.2297C216.526 97.4537 216.492 97.7364 216.403 97.9931C216.065 98.9677 215.012 99.4535 214.191 100.078C213.37 100.703 212.72 101.947 213.415 102.709C213.758 103.086 214.36 103.238 214.53 103.717C214.743 104.316 214.131 104.853 213.646 105.266C212.84 105.952 212.694 108.004 213.76 108.565C214.208 108.801 214.864 108.873 214.974 109.367C215.073 109.809 214.625 110.152 214.327 110.493C213.509 111.428 213.855 113.111 214.976 113.648C215.232 113.771 215.547 113.872 215.641 114.139C215.709 114.331 215.635 114.54 215.58 114.735C215.476 115.106 215.441 115.495 215.477 115.878C215.49 116.009 215.517 116.151 215.616 116.237C215.707 116.314 215.835 116.327 215.954 116.332C217.494 116.4 218.237 115.856 219.177 117.196C219.267 117.324 219.361 117.457 219.497 117.536C219.624 117.61 219.775 117.63 219.922 117.642C220.981 117.729 221.673 117.068 222.64 116.946C223.982 116.775 224.266 117.467 225.448 118.022C227.308 118.896 228.21 118.358 228.559 117.091Z" fill="#EBEBEB"/>
<path d="M220.158 111.549C220.271 111.139 220.338 110.67 220.369 110.152C220.541 107.255 223.307 107.714 225.66 107.32C227.499 107.013 222.631 102.369 226.337 100.871C227.025 100.592 227.774 100.278 228.126 99.6237C228.592 98.7592 228.121 97.6209 227.319 97.0532C226.517 96.4863 225.486 96.3658 224.504 96.3479C223.899 95.6128 224.391 94.5065 224.976 93.7558C225.561 93.0051 226.278 92.151 226.056 91.2255C225.721 89.8282 223.768 89.7776 222.357 90.0492C221.835 89.2048 221.846 88.149 221.593 87.1893C221.34 86.2295 220.576 85.2221 219.591 85.3426C218.664 85.4557 218.096 86.5033 217.186 86.7183C216.129 86.9675 215.214 86.0323 214.385 85.3315C213.556 84.6299 212.106 84.1924 211.535 85.1165C211.192 85.6693 211.398 86.44 211.042 86.9847C210.426 87.928 208.966 87.3425 208.059 86.6737C207.152 86.0048 205.708 85.3985 205.071 86.3277C204.875 86.6119 204.833 86.9705 204.72 87.2971C204.29 88.5351 202.953 89.1512 201.91 89.945C200.868 90.7389 200.043 92.3176 200.924 93.2863C201.36 93.764 202.124 93.9574 202.341 94.5668C202.611 95.3279 201.834 96.0101 201.218 96.5331C200.194 97.4044 200.009 100.011 201.363 100.724C201.931 101.023 202.765 101.115 202.904 101.743C203.029 102.304 202.46 102.74 202.082 103.172C201.044 104.359 201.483 106.497 202.906 107.179C203.231 107.335 203.63 107.463 203.751 107.803C203.837 108.046 203.743 108.311 203.674 108.559C203.541 109.029 203.497 109.524 203.543 110.01C203.559 110.177 203.593 110.357 203.72 110.465C203.834 110.564 203.997 110.579 204.149 110.586C206.105 110.673 207.048 109.981 208.242 111.682C208.356 111.846 208.476 112.014 208.649 112.115C208.81 112.209 209.002 112.234 209.188 112.249C210.532 112.36 211.411 111.521 212.639 111.365C214.344 111.148 214.705 112.026 216.207 112.732C218.569 113.843 219.713 113.159 220.158 111.549Z" fill="#EBEBEB"/>
<path d="M243.749 86.7085C243.862 86.2985 243.929 85.8291 243.96 85.3113C244.132 82.4141 246.898 82.8732 249.251 82.4796C251.09 82.1723 246.222 77.5283 249.928 76.0299C250.616 75.7516 251.365 75.4369 251.717 74.7829C252.183 73.9184 251.712 72.7801 250.91 72.2131C250.108 71.6462 249.077 71.5257 248.095 71.5078C247.49 70.7728 247.982 69.6664 248.568 68.9157C249.153 68.165 249.87 67.3109 249.648 66.3854C249.313 64.9874 247.36 64.9376 245.949 65.2091C245.427 64.3647 245.438 63.3089 245.185 62.3492C244.932 61.3894 244.168 60.3821 243.183 60.5026C242.255 60.6157 241.688 61.664 240.778 61.8782C239.721 62.1275 238.805 61.1923 237.977 60.4914C237.148 59.7906 235.698 59.3524 235.126 60.2764C234.784 60.8292 234.99 61.6 234.634 62.1446C234.018 63.088 232.558 62.5025 231.651 61.8336C230.744 61.1647 229.3 60.5584 228.663 61.4876C228.467 61.7718 228.424 62.1305 228.311 62.4571C227.882 63.6951 226.544 64.3111 225.502 65.105C224.46 65.8988 223.635 67.4776 224.516 68.4463C224.951 68.9239 225.716 69.1181 225.933 69.7267C226.203 70.4878 225.425 71.1701 224.81 71.6931C223.786 72.5643 223.6 75.1713 224.954 75.884C225.523 76.1831 226.357 76.2754 226.496 76.9026C226.621 77.4636 226.052 77.8995 225.674 78.3318C224.635 79.5192 225.075 81.6567 226.497 82.3382C226.823 82.4937 227.222 82.6217 227.343 82.9617C227.429 83.205 227.334 83.4699 227.265 83.7184C227.134 84.1886 227.089 84.6833 227.135 85.1692C227.151 85.3351 227.185 85.5159 227.311 85.6245C227.427 85.7234 227.589 85.7383 227.741 85.7458C229.696 85.8328 230.639 85.1409 231.833 86.8424C231.948 87.0061 232.068 87.1742 232.24 87.2747C232.402 87.3684 232.594 87.3937 232.78 87.4093C234.124 87.5202 235.003 86.681 236.231 86.5247C237.936 86.3075 238.297 87.1861 239.799 87.8922C242.16 89.0022 243.305 88.3178 243.749 86.7085Z" fill="#EBEBEB"/>
<path d="M263.011 87.6936C263.124 87.2837 263.191 86.8142 263.222 86.2964C263.394 83.3992 266.16 83.8583 268.513 83.4647C270.352 83.1574 265.484 78.5134 269.19 77.015C269.878 76.7367 270.627 76.422 270.979 75.768C271.445 74.9035 270.974 73.7652 270.172 73.1975C269.37 72.6306 268.339 72.5101 267.357 72.4922C266.752 71.7571 267.244 70.6508 267.829 69.9001C268.414 69.1494 269.131 68.2953 268.91 67.3698C268.575 65.9725 266.622 65.9219 265.211 66.1935C264.689 65.3491 264.699 64.2933 264.446 63.3336C264.194 62.3738 263.43 61.3664 262.445 61.487C261.517 61.6 260.95 62.6483 260.04 62.8626C258.983 63.1119 258.067 62.1774 257.239 61.4758C256.41 60.775 254.96 60.3367 254.388 61.2608C254.046 61.8136 254.251 62.5844 253.896 63.129C253.28 64.0724 251.82 63.4868 250.913 62.818C250.006 62.1491 248.562 61.5428 247.924 62.472C247.729 62.7562 247.686 63.1148 247.573 63.4414C247.144 64.6787 245.806 65.2955 244.765 66.0893C243.722 66.8832 242.897 68.462 243.779 69.4306C244.214 69.9083 244.979 70.1025 245.195 70.7111C245.466 71.4722 244.688 72.1537 244.073 72.6775C243.048 73.5487 242.863 76.1557 244.217 76.8684C244.786 77.1675 245.62 77.2598 245.759 77.8869C245.884 78.4479 245.315 78.8839 244.937 79.3162C243.898 80.5036 244.338 82.6419 245.76 83.3234C246.085 83.4789 246.485 83.6068 246.605 83.9468C246.692 84.1901 246.597 84.455 246.528 84.7035C246.396 85.1737 246.352 85.6684 246.398 86.1543C246.413 86.3202 246.448 86.501 246.574 86.6096C246.689 86.7086 246.852 86.7234 247.003 86.7309C248.959 86.8179 249.902 86.126 251.096 87.8275C251.211 87.9912 251.331 88.1594 251.503 88.2598C251.665 88.3535 251.857 88.3788 252.043 88.3945C253.387 88.5053 254.266 87.6661 255.494 87.5099C257.198 87.2926 257.559 88.1713 259.061 88.8773C261.422 89.9874 262.567 89.3029 263.011 87.6936Z" fill="#EBEBEB"/>
<path d="M274.711 95.5766C274.824 95.1667 274.892 94.6972 274.922 94.1794C275.094 91.2823 277.86 91.7413 280.213 91.3477C282.052 91.0405 277.184 86.3964 280.89 84.898C281.579 84.6198 282.327 84.305 282.679 83.6511C283.145 82.7865 282.674 81.6482 281.872 81.0813C281.07 80.5144 280.039 80.3938 279.057 80.3752C278.452 79.6402 278.944 78.5338 279.53 77.7831C280.114 77.0324 280.832 76.1783 280.61 75.2528C280.275 73.8548 278.322 73.805 276.911 74.0765C276.389 73.2321 276.4 72.1764 276.147 71.2166C275.894 70.2568 275.13 69.2495 274.145 69.37C273.218 69.4831 272.65 70.5314 271.74 70.7456C270.683 70.9949 269.768 70.0597 268.939 69.3588C268.11 68.6572 266.66 68.2198 266.089 69.1438C265.746 69.6966 265.952 70.4674 265.596 71.012C264.98 71.9554 263.52 71.3699 262.613 70.701C261.706 70.0322 260.262 69.4258 259.625 70.3551C259.429 70.6393 259.387 70.9979 259.273 71.3245C258.844 72.5625 257.507 73.1785 256.465 73.9724C255.423 74.7662 254.597 76.345 255.479 77.3137C255.914 77.7913 256.679 77.9855 256.896 78.5941C257.166 79.3552 256.388 80.0367 255.773 80.5605C254.748 81.4317 254.563 84.0387 255.917 84.7514C256.486 85.0505 257.32 85.1428 257.459 85.77C257.584 86.331 257.015 86.7669 256.637 87.1992C255.598 88.3866 256.038 90.5241 257.46 91.2064C257.786 91.3619 258.185 91.4899 258.306 91.8299C258.392 92.0732 258.297 92.338 258.228 92.5865C258.096 93.0567 258.052 93.5515 258.098 94.0373C258.114 94.2032 258.148 94.384 258.274 94.4926C258.39 94.5916 258.552 94.6065 258.704 94.6132C260.66 94.7002 261.602 94.0083 262.796 95.7098C262.911 95.8735 263.031 96.0416 263.203 96.1421C263.365 96.2358 263.557 96.2611 263.743 96.2767C265.087 96.3876 265.966 95.5484 267.194 95.3921C268.899 95.1749 269.259 96.0535 270.762 96.7596C273.122 97.8704 274.267 97.1859 274.711 95.5766Z" fill="#EBEBEB"/>
<path d="M271.164 105.539C271.164 105.539 266.27 112.457 264.583 114.65C262.895 116.843 254.459 130.51 253.311 139.55C253.188 140.515 253.068 141.345 252.95 142.071C256.579 166.023 256.01 209.843 255.882 217.345H244.385C244.28 208.886 243.303 131.555 242.942 129.193C242.561 126.696 237.755 117.18 230.331 113.272C222.908 109.363 216.492 96.4274 216.492 96.4274H218.858C218.858 96.4274 223.245 104.358 229.488 108.744C230.395 109.381 231.333 109.912 232.296 110.409C232.072 103.263 234.779 96.4274 234.779 96.4274L236.056 97.6081C234.332 104.671 234.559 109.194 235.08 111.793C237.175 112.843 239.349 114.059 241.535 116.113C248.011 107.692 251.652 88.4346 251.652 88.4346L253.311 89.34C253.311 89.34 252.772 94.5703 251.169 101.151C249.956 106.135 246.385 115.52 244.724 119.781C246.375 122.074 248.015 125.039 249.616 128.963C249.797 128.684 250.002 128.43 250.241 128.214C254.459 124.4 262.389 106.381 262.389 106.381C264.307 102.193 261.376 91.1963 261.376 91.1963H263.59L264.581 100.813L270.149 94.7392L271.162 95.5829L265.257 103.175L262.22 112.795L270.15 104.019L271.164 105.539Z" fill="#E6E6E6"/>
<path d="M62.2388 139.783C62.1518 139.468 62.1005 139.108 62.0766 138.711C61.9442 136.488 59.8223 136.84 58.0166 136.539C56.606 136.303 60.3409 132.74 57.4973 131.59C56.9691 131.377 56.3947 131.136 56.1246 130.633C55.7675 129.97 56.1291 129.096 56.7444 128.661C57.3597 128.226 58.1506 128.134 58.9035 128.119C59.367 127.555 58.9898 126.707 58.5412 126.131C58.0925 125.555 57.5427 124.899 57.7123 124.19C57.969 123.118 59.4674 123.079 60.5507 123.287C60.951 122.639 60.9428 121.829 61.137 121.093C61.3312 120.357 61.9167 119.584 62.6726 119.676C63.3846 119.763 63.8198 120.566 64.5177 120.732C65.3287 120.923 66.031 120.206 66.6671 119.668C67.3033 119.13 68.4155 118.794 68.8537 119.502C69.1164 119.927 68.9587 120.518 69.2317 120.936C69.7041 121.66 70.8246 121.211 71.5202 120.697C72.2159 120.184 73.3237 119.719 73.8132 120.432C73.9628 120.65 73.9963 120.925 74.0826 121.175C74.4114 122.125 75.4381 122.597 76.2379 123.207C77.0377 123.816 77.6709 125.027 76.9946 125.771C76.6605 126.137 76.0735 126.285 75.9076 126.753C75.7 127.338 76.2967 127.861 76.7692 128.262C77.5548 128.93 77.6977 130.931 76.6583 131.478C76.2223 131.708 75.5825 131.778 75.4753 132.259C75.3794 132.689 75.8161 133.024 76.1063 133.356C76.9031 134.267 76.5661 135.907 75.4739 136.43C75.2246 136.55 74.9181 136.647 74.8258 136.908C74.7596 137.095 74.8318 137.298 74.8854 137.489C74.9865 137.849 75.0208 138.229 74.9858 138.602C74.9739 138.73 74.9471 138.867 74.8504 138.951C74.7619 139.027 74.6376 139.039 74.5208 139.044C73.0201 139.111 72.2962 138.58 71.3811 139.886C71.2933 140.012 71.2011 140.14 71.0686 140.218C70.9444 140.29 70.7978 140.309 70.655 140.321C69.6238 140.406 68.949 139.762 68.0071 139.643C66.6991 139.476 66.4224 140.15 65.2699 140.692C63.4583 141.543 62.5796 141.018 62.2388 139.783Z" fill="#EBEBEB"/>
<path d="M79.5191 137.916C79.4321 137.601 79.3807 137.241 79.3569 136.844C79.2252 134.621 77.1026 134.973 75.2969 134.671C73.8863 134.436 77.6212 130.873 74.7776 129.723C74.2494 129.509 73.675 129.268 73.4049 128.766C73.0478 128.103 73.4094 127.229 74.0247 126.795C74.64 126.359 75.4308 126.267 76.1838 126.253C76.648 125.689 76.2708 124.84 75.8214 124.264C75.3728 123.688 74.823 123.033 74.9926 122.323C75.2493 121.251 76.7485 121.212 77.831 121.421C78.2312 120.773 78.2231 119.962 78.4172 119.227C78.6114 118.49 79.197 117.717 79.9529 117.809C80.6649 117.896 81.1001 118.7 81.7987 118.864C82.6097 119.056 83.312 118.338 83.9481 117.8C84.5843 117.263 85.6973 116.927 86.1348 117.635C86.3974 118.059 86.2397 118.651 86.5127 119.069C86.9852 119.793 88.1056 119.343 88.8013 118.83C89.4969 118.317 90.6047 117.852 91.0943 118.565C91.2438 118.783 91.2773 119.058 91.3636 119.308C91.6924 120.258 92.7192 120.73 93.519 121.34C94.3188 121.949 94.9519 123.16 94.2756 123.903C93.9415 124.27 93.3545 124.419 93.1886 124.886C92.981 125.47 93.5777 125.993 94.0502 126.395C94.8358 127.063 94.9787 129.064 93.9393 129.611C93.5033 129.841 92.8635 129.911 92.7564 130.392C92.6604 130.822 93.0971 131.157 93.3873 131.489C94.1841 132.4 93.8471 134.04 92.7549 134.563C92.5056 134.683 92.1991 134.78 92.1069 135.041C92.0406 135.228 92.1128 135.431 92.1664 135.621C92.2676 135.982 92.3018 136.362 92.2661 136.735C92.2542 136.862 92.2281 137.001 92.1307 137.085C92.0421 137.161 91.9171 137.173 91.8011 137.178C90.3004 137.245 89.5765 136.714 88.6614 138.019C88.5736 138.145 88.4813 138.274 88.3489 138.351C88.2247 138.423 88.0781 138.443 87.9352 138.455C86.9041 138.539 86.2292 137.896 85.2873 137.776C83.9794 137.609 83.7026 138.283 82.5502 138.825C80.7385 139.676 79.8599 139.151 79.5191 137.916Z" fill="#EBEBEB"/>
<path d="M81.1839 126.912C81.0969 126.597 81.0455 126.237 81.0217 125.839C80.8893 123.616 78.7674 123.968 76.9617 123.667C75.5511 123.431 79.286 119.868 76.4417 118.719C75.9134 118.505 75.3391 118.264 75.069 117.762C74.7119 117.098 75.0734 116.225 75.6887 115.79C76.304 115.354 77.0949 115.262 77.8478 115.248C78.3121 114.684 77.9341 113.835 77.4855 113.259C77.0361 112.683 76.487 112.028 76.6567 111.318C76.9134 110.246 78.4125 110.207 79.495 110.416C79.8953 109.768 79.8871 108.957 80.0813 108.221C80.2755 107.484 80.861 106.712 81.6169 106.803C82.3289 106.891 82.7642 107.694 83.462 107.858C84.273 108.05 84.9753 107.332 85.6115 106.795C86.2476 106.257 87.3599 105.921 87.7981 106.629C88.0607 107.053 87.9037 107.645 88.176 108.062C88.6485 108.786 89.7689 108.337 90.4646 107.824C91.1602 107.31 92.2688 106.845 92.7583 107.558C92.9079 107.776 92.9414 108.051 93.0277 108.301C93.3565 109.251 94.3832 109.724 95.183 110.333C95.9828 110.942 96.616 112.154 95.9397 112.897C95.6056 113.264 95.0186 113.412 94.8527 113.88C94.6451 114.464 95.2418 114.987 95.7142 115.389C96.4999 116.057 96.6428 118.057 95.6034 118.604C95.1674 118.834 94.5276 118.904 94.4204 119.385C94.3244 119.815 94.7612 120.15 95.0513 120.482C95.8482 121.393 95.5111 123.033 94.4189 123.556C94.1697 123.676 93.8632 123.773 93.7709 124.035C93.7047 124.221 93.7769 124.424 93.8304 124.615C93.9316 124.976 93.9658 125.355 93.9301 125.728C93.9182 125.856 93.8922 125.993 93.7947 126.078C93.7069 126.153 93.5819 126.165 93.4651 126.171C91.9645 126.238 91.2406 125.706 90.3247 127.012C90.2369 127.138 90.1447 127.266 90.0122 127.344C89.888 127.416 89.7414 127.435 89.5978 127.447C88.5666 127.532 87.8918 126.889 86.9499 126.769C85.642 126.602 85.3652 127.276 84.2127 127.818C82.4033 128.671 81.5247 128.147 81.1839 126.912Z" fill="#EBEBEB"/>
<path d="M92.5677 132.393C92.4814 132.079 92.4293 131.718 92.4055 131.321C92.2738 129.098 90.1512 129.451 88.3455 129.149C86.9349 128.913 90.6698 125.35 87.8255 124.2C87.2972 123.987 86.7228 123.745 86.4528 123.244C86.0957 122.58 86.4572 121.706 87.0725 121.271C87.6878 120.836 88.4787 120.744 89.2316 120.73C89.6959 120.166 89.3187 119.317 88.8693 118.741C88.4207 118.165 87.8708 117.51 88.0405 116.8C88.2972 115.728 89.7963 115.689 90.8788 115.897C91.2791 115.249 91.2709 114.439 91.4651 113.702C91.6593 112.966 92.2448 112.194 93.0007 112.285C93.7127 112.372 94.148 113.176 94.8458 113.341C95.6568 113.532 96.3591 112.815 96.9953 112.277C97.6314 111.739 98.7437 111.404 99.1819 112.112C99.4445 112.536 99.2868 113.127 99.5598 113.545C100.032 114.269 101.153 113.819 101.848 113.306C102.544 112.793 103.652 112.328 104.141 113.04C104.292 113.259 104.324 113.534 104.411 113.784C104.74 114.734 105.766 115.207 106.566 115.816C107.366 116.426 107.999 117.637 107.323 118.38C106.989 118.747 106.402 118.896 106.236 119.363C106.028 119.947 106.625 120.47 107.097 120.872C107.883 121.54 108.026 123.54 106.986 124.087C106.55 124.317 105.911 124.387 105.803 124.868C105.707 125.298 106.144 125.633 106.434 125.965C107.231 126.876 106.893 128.516 105.802 129.039C105.553 129.159 105.246 129.257 105.154 129.518C105.088 129.704 105.16 129.908 105.213 130.098C105.315 130.459 105.349 130.838 105.313 131.212C105.301 131.339 105.275 131.477 105.178 131.561C105.089 131.637 104.965 131.649 104.848 131.654C103.348 131.721 102.624 131.19 101.708 132.496C101.62 132.622 101.528 132.75 101.395 132.828C101.271 132.9 101.124 132.919 100.981 132.931C99.9497 133.016 99.2756 132.372 98.333 132.253C97.025 132.086 96.7482 132.76 95.5958 133.302C93.7871 134.153 92.9085 133.628 92.5677 132.393Z" fill="#EBEBEB"/>
<path d="M104.072 129.862C103.985 129.547 103.933 129.187 103.909 128.79C103.777 126.567 101.655 126.919 99.8494 126.617C98.4388 126.382 102.174 122.819 99.3294 121.669C98.8011 121.456 98.2268 121.214 97.9567 120.712C97.5996 120.049 97.9611 119.175 98.5764 118.74C99.1917 118.305 99.9826 118.212 100.736 118.198C101.199 117.634 100.822 116.785 100.373 116.21C99.9246 115.634 99.3747 114.978 99.5444 114.268C99.8011 113.196 101.299 113.158 102.383 113.366C102.783 112.718 102.775 111.908 102.969 111.171C103.163 110.435 103.749 109.662 104.505 109.754C105.217 109.841 105.652 110.644 106.35 110.81C107.161 111.001 107.863 110.284 108.499 109.746C109.135 109.208 110.248 108.872 110.686 109.581C110.948 110.005 110.791 110.596 111.064 111.013C111.536 111.737 112.657 111.288 113.352 110.775C114.048 110.261 115.156 109.796 115.645 110.509C115.796 110.727 115.828 111.002 115.915 111.252C116.243 112.202 117.27 112.675 118.07 113.284C118.87 113.894 119.503 115.105 118.827 115.848C118.493 116.215 117.906 116.364 117.74 116.831C117.532 117.415 118.129 117.938 118.601 118.34C119.387 119.008 119.53 121.008 118.49 121.555C118.054 121.785 117.415 121.855 117.307 122.336C117.211 122.766 117.648 123.101 117.938 123.433C118.735 124.344 118.398 125.984 117.307 126.507C117.057 126.627 116.751 126.725 116.658 126.986C116.592 127.172 116.664 127.376 116.717 127.566C116.819 127.927 116.853 128.306 116.817 128.68C116.805 128.808 116.779 128.945 116.682 129.029C116.593 129.105 116.469 129.117 116.352 129.122C114.851 129.189 114.128 128.658 113.212 129.964C113.124 130.09 113.032 130.218 112.899 130.296C112.775 130.368 112.628 130.387 112.485 130.399C111.454 130.484 110.78 129.84 109.837 129.721C108.529 129.554 108.252 130.228 107.1 130.77C105.29 131.622 104.412 131.096 104.072 129.862Z" fill="#EBEBEB"/>
<path d="M104.222 142.167C104.153 141.92 104.113 141.636 104.095 141.324C103.99 139.573 102.319 139.85 100.898 139.613C99.7869 139.428 102.728 136.621 100.488 135.717C100.073 135.549 99.6202 135.359 99.4082 134.964C99.127 134.442 99.4112 133.754 99.8963 133.411C100.381 133.068 101.003 132.996 101.596 132.985C101.962 132.541 101.665 131.873 101.311 131.419C100.958 130.965 100.525 130.449 100.659 129.89C100.861 129.045 102.041 129.015 102.894 129.179C103.209 128.669 103.203 128.031 103.356 127.451C103.508 126.871 103.97 126.263 104.565 126.335C105.126 126.403 105.468 127.037 106.018 127.166C106.656 127.316 107.209 126.752 107.71 126.328C108.211 125.905 109.088 125.64 109.432 126.198C109.639 126.532 109.515 126.998 109.73 127.327C110.102 127.897 110.984 127.543 111.532 127.138C112.079 126.734 112.952 126.368 113.337 126.929C113.456 127.101 113.482 127.318 113.549 127.515C113.808 128.263 114.617 128.635 115.246 129.115C115.876 129.594 116.375 130.548 115.842 131.133C115.58 131.422 115.117 131.538 114.987 131.907C114.824 132.367 115.293 132.779 115.665 133.095C116.284 133.621 116.396 135.196 115.578 135.627C115.235 135.808 114.731 135.863 114.647 136.242C114.572 136.581 114.915 136.845 115.144 137.106C115.771 137.823 115.505 139.115 114.646 139.526C114.45 139.621 114.209 139.697 114.136 139.903C114.084 140.049 114.14 140.21 114.183 140.36C114.262 140.644 114.289 140.943 114.261 141.237C114.252 141.337 114.231 141.446 114.155 141.512C114.086 141.571 113.987 141.581 113.895 141.585C112.714 141.638 112.144 141.219 111.423 142.248C111.354 142.347 111.281 142.449 111.177 142.509C111.079 142.566 110.963 142.581 110.851 142.59C110.038 142.657 109.508 142.15 108.765 142.056C107.736 141.925 107.518 142.455 106.61 142.882C105.182 143.553 104.49 143.14 104.222 142.167Z" fill="#EBEBEB"/>
<path d="M110.668 137.916C110.581 137.601 110.529 137.241 110.505 136.844C110.373 134.621 108.251 134.973 106.445 134.671C105.035 134.436 108.77 130.873 105.926 129.723C105.398 129.509 104.823 129.268 104.553 128.766C104.196 128.103 104.558 127.229 105.173 126.795C105.788 126.359 106.579 126.267 107.332 126.253C107.796 125.689 107.419 124.84 106.97 124.264C106.521 123.688 105.971 123.033 106.141 122.323C106.398 121.251 107.896 121.212 108.979 121.421C109.38 120.773 109.372 119.962 109.566 119.227C109.76 118.491 110.345 117.717 111.101 117.809C111.813 117.896 112.249 118.7 112.946 118.864C113.757 119.056 114.46 118.338 115.096 117.8C115.732 117.263 116.844 116.927 117.282 117.635C117.545 118.059 117.387 118.651 117.66 119.069C118.133 119.793 119.253 119.343 119.949 118.83C120.645 118.317 121.752 117.852 122.242 118.565C122.392 118.783 122.425 119.058 122.511 119.308C122.84 120.258 123.867 120.73 124.667 121.34C125.466 121.949 126.1 123.16 125.423 123.903C125.089 124.27 124.502 124.419 124.336 124.886C124.129 125.47 124.725 125.993 125.198 126.395C125.984 127.063 126.126 129.064 125.087 129.611C124.651 129.841 124.011 129.911 123.904 130.392C123.808 130.822 124.245 131.157 124.535 131.489C125.332 132.4 124.994 134.04 123.903 134.563C123.653 134.683 123.347 134.78 123.254 135.041C123.188 135.228 123.26 135.431 123.313 135.621C123.414 135.982 123.449 136.362 123.414 136.735C123.402 136.862 123.376 137.001 123.278 137.085C123.19 137.161 123.065 137.173 122.949 137.178C121.448 137.245 120.724 136.714 119.808 138.019C119.721 138.145 119.628 138.274 119.496 138.351C119.372 138.423 119.225 138.443 119.081 138.455C118.05 138.539 117.376 137.896 116.434 137.776C115.126 137.609 114.849 138.283 113.696 138.825C111.887 139.676 111.008 139.151 110.668 137.916Z" fill="#EBEBEB"/>
<path d="M92.5677 118.857C92.4814 118.542 92.4293 118.182 92.4055 117.785C92.2738 115.562 90.1512 115.915 88.3455 115.613C86.9349 115.377 90.6698 111.814 87.8255 110.664C87.2972 110.451 86.7228 110.21 86.4528 109.707C86.0957 109.044 86.4572 108.17 87.0725 107.735C87.6878 107.3 88.4787 107.208 89.2316 107.193C89.6959 106.629 89.3187 105.781 88.8693 105.205C88.4207 104.629 87.8708 103.973 88.0405 103.264C88.2972 102.192 89.7963 102.153 90.8788 102.361C91.2791 101.713 91.2709 100.903 91.4651 100.166C91.6593 99.4298 92.2448 98.6575 93.0007 98.749C93.7127 98.8361 94.148 99.6396 94.8458 99.8048C95.6568 99.996 96.3591 99.2788 96.9953 98.7408C97.6314 98.2029 98.7437 97.8674 99.1819 98.5757C99.4445 98.9998 99.2868 99.5912 99.5598 100.009C100.032 100.733 101.153 100.283 101.848 99.7698C102.544 99.2564 103.652 98.7914 104.141 99.5042C104.292 99.7222 104.324 99.9975 104.411 100.248C104.74 101.198 105.766 101.671 106.566 102.28C107.366 102.889 107.999 104.101 107.323 104.844C106.989 105.211 106.402 105.359 106.236 105.827C106.028 106.411 106.625 106.934 107.097 107.336C107.883 108.004 108.026 110.004 106.986 110.551C106.55 110.781 105.911 110.851 105.803 111.332C105.707 111.762 106.144 112.097 106.434 112.429C107.231 113.34 106.893 114.98 105.802 115.503C105.553 115.623 105.246 115.72 105.154 115.982C105.088 116.168 105.16 116.371 105.213 116.562C105.315 116.923 105.349 117.302 105.313 117.675C105.301 117.803 105.275 117.941 105.178 118.025C105.089 118.1 104.965 118.112 104.848 118.118C103.348 118.185 102.624 117.653 101.708 118.959C101.62 119.085 101.528 119.213 101.395 119.291C101.271 119.363 101.124 119.382 100.981 119.394C99.9497 119.479 99.2756 118.836 98.333 118.715C97.025 118.548 96.7482 119.222 95.5958 119.764C93.7871 120.617 92.9085 120.091 92.5677 118.857Z" fill="#EBEBEB"/>
<path d="M77.7886 119.612C77.7016 119.298 77.6503 118.938 77.6265 118.54C77.4948 116.317 75.3721 116.669 73.5664 116.368C72.1558 116.132 75.8907 112.569 73.0471 111.42C72.5189 111.206 71.9445 110.964 71.6745 110.463C71.3173 109.799 71.6789 108.926 72.2942 108.491C72.9095 108.056 73.7004 107.964 74.4533 107.95C74.9175 107.386 74.5403 106.537 74.091 105.961C73.6416 105.385 73.0925 104.729 73.2622 104.02C73.5188 102.948 75.018 102.909 76.1005 103.117C76.5008 102.469 76.4926 101.659 76.6868 100.923C76.881 100.187 77.4665 99.4136 78.2224 99.5059C78.9344 99.5929 79.3696 100.396 80.0675 100.562C80.8785 100.753 81.5808 100.036 82.2169 99.4977C82.8531 98.9598 83.9653 98.6242 84.4036 99.3325C84.6662 99.7566 84.5085 100.348 84.7815 100.765C85.2539 101.489 86.3744 101.04 87.07 100.527C87.7657 100.013 88.8735 99.5483 89.3631 100.261C89.5126 100.48 89.5461 100.754 89.6324 101.004C89.9612 101.954 90.988 102.427 91.7878 103.036C92.5876 103.645 93.2207 104.857 92.5444 105.6C92.2103 105.967 91.6233 106.115 91.4574 106.583C91.2498 107.167 91.8465 107.69 92.319 108.092C93.1046 108.76 93.2475 110.76 92.2081 111.307C91.7721 111.537 91.1323 111.607 91.0252 112.088C90.9292 112.518 91.3659 112.853 91.6561 113.185C92.4529 114.096 92.1159 115.736 91.0237 116.259C90.7744 116.379 90.4679 116.477 90.3756 116.738C90.3094 116.924 90.3816 117.128 90.4352 117.318C90.5363 117.679 90.5706 118.058 90.5349 118.432C90.5229 118.559 90.4969 118.697 90.3994 118.781C90.3109 118.857 90.1859 118.869 90.0699 118.874C88.5692 118.941 87.8453 118.41 86.9294 119.716C86.8416 119.842 86.7494 119.97 86.6169 120.048C86.4927 120.12 86.3461 120.139 86.2033 120.151C85.1721 120.236 84.4973 119.592 83.5554 119.473C82.2474 119.306 81.9707 119.98 80.8182 120.522C79.0073 121.373 78.1287 120.848 77.7886 119.612Z" fill="#EBEBEB"/>
<path d="M68.8109 125.66C68.7238 125.346 68.6725 124.986 68.6487 124.589C68.5163 122.366 66.3944 122.718 64.5887 122.416C63.1781 122.181 66.9129 118.618 64.0686 117.468C63.5404 117.255 62.966 117.014 62.6959 116.511C62.3388 115.848 62.7004 114.974 63.3157 114.54C63.931 114.105 64.7219 114.012 65.4748 113.998C65.939 113.434 65.5618 112.585 65.1125 112.009C64.6631 111.434 64.114 110.778 64.2836 110.068C64.5403 108.996 66.0395 108.958 67.122 109.166C67.5223 108.518 67.5141 107.708 67.7083 106.971C67.9025 106.234 68.488 105.462 69.2439 105.554C69.9559 105.641 70.3911 106.444 71.089 106.609C71.9 106.801 72.6023 106.083 73.2384 105.546C73.8745 105.008 74.9868 104.672 75.425 105.38C75.6877 105.804 75.5307 106.396 75.803 106.814C76.2754 107.538 77.3959 107.089 78.0915 106.575C78.7872 106.062 79.8957 105.597 80.3845 106.31C80.5341 106.528 80.5676 106.803 80.6539 107.054C80.9827 108.003 82.0094 108.476 82.8092 109.085C83.609 109.695 84.2422 110.906 83.5659 111.649C83.2318 112.016 82.6448 112.164 82.4789 112.632C82.2713 113.216 82.8688 113.739 83.3405 114.141C84.1261 114.809 84.269 116.81 83.2296 117.357C82.7936 117.586 82.1538 117.656 82.0466 118.138C81.9507 118.568 82.3874 118.903 82.6775 119.234C83.4744 120.146 83.1373 121.786 82.0451 122.309C81.7959 122.428 81.4894 122.526 81.3971 122.787C81.3309 122.974 81.4031 123.177 81.4566 123.368C81.5578 123.729 81.5921 124.108 81.5563 124.481C81.5444 124.608 81.5184 124.747 81.4209 124.831C81.3331 124.907 81.2082 124.919 81.0913 124.923C79.5907 124.99 78.8668 124.459 77.9509 125.764C77.8631 125.89 77.7709 126.02 77.6384 126.096C77.5142 126.168 77.3676 126.188 77.224 126.2C76.1928 126.285 75.5188 125.641 74.5761 125.52C73.2682 125.354 72.9914 126.028 71.839 126.569C70.0295 127.421 69.1509 126.895 68.8109 125.66Z" fill="#EBEBEB"/>
<path d="M71.5332 133.304C71.5332 133.304 75.2874 138.612 76.582 140.295C77.8765 141.978 84.3493 152.464 85.2302 159.399C85.324 160.14 85.417 160.777 85.507 161.334C82.723 179.711 83.1597 213.333 83.2579 219.09H92.0788C92.1599 212.599 92.9098 153.265 93.1858 151.453C93.4782 149.537 97.1655 142.237 102.862 139.238C108.558 136.239 113.48 126.314 113.48 126.314H111.665C111.665 126.314 108.299 132.398 103.509 135.764C102.813 136.253 102.093 136.66 101.353 137.041C101.525 131.558 99.4488 126.314 99.4488 126.314L98.469 127.22C99.7926 132.639 99.6185 136.11 99.2174 138.104C97.6097 138.91 95.9424 139.842 94.2646 141.418C89.2962 134.957 86.5025 120.182 86.5025 120.182L85.2302 120.877C85.2302 120.877 85.6439 124.89 86.873 129.938C87.8037 133.763 90.5431 140.963 91.8184 144.232C90.5513 145.992 89.2932 148.266 88.0649 151.277C87.9258 151.063 87.7688 150.868 87.5857 150.703C84.3493 147.777 78.2649 133.952 78.2649 133.952C76.7933 130.738 79.0416 122.301 79.0416 122.301H77.3431L76.582 129.68L72.3099 125.019L71.5332 125.666L76.0642 131.492L78.3944 138.872L72.3099 132.139L71.5332 133.304Z" fill="#E6E6E6"/>
<path d="M49.255 229.485H322.745C325.997 229.485 328.634 232.122 328.634 235.374V244.244H43.3662V235.374C43.3662 232.121 46.003 229.485 49.255 229.485Z" fill="#E0E0E0"/>
</svg>
