<svg width="24" height="24" viewBox="0 0 24 24" fill="none" xmlns="http://www.w3.org/2000/svg">
<path d="M11.8221 0.947266C5.46229 0.947266 0.306641 6.10292 0.306641 12.4627C0.306641 18.8226 5.46229 23.9782 11.8221 23.9782C18.1819 23.9782 23.3376 18.8226 23.3376 12.4627C23.3302 6.10599 18.1789 0.954669 11.8221 0.947266Z" fill="#20C5F2"/>
<path d="M18.4692 8.81613L11.9006 17.7301C11.744 17.9379 11.5104 18.0741 11.2523 18.108C10.9943 18.1419 10.7334 18.0708 10.5284 17.9105L5.83771 14.1603C5.4238 13.829 5.35677 13.225 5.68801 12.811C6.01925 12.3971 6.62332 12.3301 7.03724 12.6613L10.9487 15.7907L16.9242 7.6809C17.1202 7.38686 17.4619 7.22429 17.8136 7.25774C18.1654 7.29119 18.4703 7.51524 18.6073 7.84094C18.7443 8.16663 18.6913 8.54128 18.4692 8.81613Z" fill="white"/>
</svg>
