<svg width="24" height="24" viewBox="0 0 24 24" fill="none" xmlns="http://www.w3.org/2000/svg">
<path d="M12.1317 0.947266C5.77186 0.947266 0.616211 6.10292 0.616211 12.4627C0.616211 18.8226 5.77186 23.9782 12.1317 23.9782C18.4915 23.9782 23.6472 18.8226 23.6472 12.4627C23.6398 6.10599 18.4884 0.954669 12.1317 0.947266Z" fill="#20C5F2"/>
<path d="M18.7788 8.81613L12.2102 17.7301C12.0535 17.9379 11.8199 18.0741 11.5619 18.108C11.3038 18.1419 11.043 18.0708 10.8379 17.9105L6.14728 14.1603C5.73337 13.829 5.66634 13.225 5.99758 12.811C6.32882 12.3971 6.93289 12.3301 7.34681 12.6613L11.2582 15.7907L17.2338 7.6809C17.4298 7.38686 17.7714 7.22429 18.1232 7.25774C18.475 7.29119 18.7799 7.51524 18.9169 7.84094C19.0539 8.16663 19.0009 8.54128 18.7788 8.81613Z" fill="white"/>
</svg>
