<svg width="24" height="24" viewBox="0 0 24 24" fill="none" xmlns="http://www.w3.org/2000/svg">
<path opacity="0.1" d="M11.993 0.372559C5.63319 0.372559 0.477539 5.52821 0.477539 11.888C0.477539 18.2479 5.63319 23.4035 11.993 23.4035C18.3528 23.4035 23.5085 18.2479 23.5085 11.888C23.5011 5.53128 18.3498 0.379962 11.993 0.372559Z" fill="white"/>
<path d="M18.6401 8.24142L12.0715 17.1554C11.9149 17.3632 11.6813 17.4994 11.4232 17.5333C11.1652 17.5672 10.9043 17.4961 10.6992 17.3358L6.00861 13.5856C5.59469 13.2543 5.52767 12.6503 5.85891 12.2363C6.19015 11.8224 6.79422 11.7554 7.20814 12.0866L11.1196 15.216L17.0951 7.10619C17.2911 6.81215 17.6328 6.64958 17.9845 6.68303C18.3363 6.71648 18.6412 6.94053 18.7782 7.26623C18.9152 7.59193 18.8622 7.96657 18.6401 8.24142Z" fill="white"/>
</svg>
