<svg width="24" height="24" viewBox="0 0 24 24" fill="none" xmlns="http://www.w3.org/2000/svg">
<path d="M12.1307 0.221191C5.77089 0.221191 0.615234 5.37685 0.615234 11.7367C0.615234 18.0965 5.77089 23.2521 12.1307 23.2521C18.4905 23.2521 23.6462 18.0965 23.6462 11.7367C23.6388 5.37991 18.4875 0.228595 12.1307 0.221191Z" fill="#20C5F2"/>
<path d="M18.7778 8.09006L12.2092 17.004C12.0526 17.2118 11.819 17.348 11.5609 17.3819C11.3029 17.4159 11.042 17.3447 10.8369 17.1844L6.14631 13.4342C5.73239 13.103 5.66537 12.4989 5.99661 12.085C6.32785 11.671 6.93192 11.604 7.34584 11.9353L11.2573 15.0646L17.2328 6.95482C17.4288 6.66078 17.7705 6.49822 18.1222 6.53167C18.474 6.56511 18.7789 6.78916 18.9159 7.11486C19.0529 7.44056 18.9999 7.81521 18.7778 8.09006Z" fill="white"/>
</svg>
