<svg width="24" height="24" viewBox="0 0 24 24" fill="none" xmlns="http://www.w3.org/2000/svg">
<path opacity="0.1" d="M11.993 0.0986328C5.63319 0.0986328 0.477539 5.25429 0.477539 11.6141C0.477539 17.9739 5.63319 23.1296 11.993 23.1296C18.3528 23.1296 23.5085 17.9739 23.5085 11.6141C23.5011 5.25736 18.3498 0.106036 11.993 0.0986328Z" fill="white"/>
<path d="M18.6401 7.9675L12.0715 16.8814C11.9149 17.0893 11.6813 17.2255 11.4232 17.2594C11.1652 17.2933 10.9043 17.2221 10.6992 17.0618L6.00861 13.3116C5.59469 12.9804 5.52767 12.3763 5.85891 11.9624C6.19015 11.5485 6.79422 11.4815 7.20814 11.8127L11.1196 14.942L17.0951 6.83226C17.2911 6.53823 17.6328 6.37566 17.9845 6.40911C18.3363 6.44255 18.6412 6.6666 18.7782 6.9923C18.9152 7.318 18.8622 7.69265 18.6401 7.9675Z" fill="white"/>
</svg>
