<svg width="26" height="22" viewBox="0 0 26 22" fill="none" xmlns="http://www.w3.org/2000/svg">
<g filter="url(#filter0_d_1_1910)">
<path d="M4 10C3.44772 10 3 10.4477 3 11C3 11.5523 3.44772 12 4 12V10ZM22.7071 11.7071C23.0976 11.3166 23.0976 10.6834 22.7071 10.2929L16.3431 3.92893C15.9526 3.53841 15.3195 3.53841 14.9289 3.92893C14.5384 4.31946 14.5384 4.95262 14.9289 5.34315L20.5858 11L14.9289 16.6569C14.5384 17.0474 14.5384 17.6805 14.9289 18.0711C15.3195 18.4616 15.9526 18.4616 16.3431 18.0711L22.7071 11.7071ZM4 12H22V10H4V12Z" fill="#20C5F2"/>
</g>
<defs>
<filter id="filter0_d_1_1910" x="0" y="0.635986" width="26" height="20.728" filterUnits="userSpaceOnUse" color-interpolation-filters="sRGB">
<feFlood flood-opacity="0" result="BackgroundImageFix"/>
<feColorMatrix in="SourceAlpha" type="matrix" values="0 0 0 0 0 0 0 0 0 0 0 0 0 0 0 0 0 0 127 0" result="hardAlpha"/>
<feOffset/>
<feGaussianBlur stdDeviation="1.5"/>
<feComposite in2="hardAlpha" operator="out"/>
<feColorMatrix type="matrix" values="0 0 0 0 0 0 0 0 0 0 0 0 0 0 0 0 0 0 0.1 0"/>
<feBlend mode="normal" in2="BackgroundImageFix" result="effect1_dropShadow_1_1910"/>
<feBlend mode="normal" in="SourceGraphic" in2="effect1_dropShadow_1_1910" result="shape"/>
</filter>
</defs>
</svg>
