<svg width="41" height="36" viewBox="0 0 41 36" fill="none" xmlns="http://www.w3.org/2000/svg">
<rect x="0.980469" y="1.22656" width="38.5156" height="33.2031" rx="3.32031" stroke="#DAE2ED" stroke-width="1.32812"/>
<g clip-path="url(#clip0_1_1787)">
<path d="M12.5341 9.89389C12.7001 9.759 12.8869 9.69934 13.0944 9.7149C13.3019 9.73047 13.4783 9.81607 13.6236 9.97171L21.6079 16.5708C21.7324 16.7161 21.7947 16.8821 21.7947 17.0689C21.7947 17.2556 21.7324 17.4217 21.6079 17.5669L13.6236 24.166C13.4783 24.3321 13.3019 24.4229 13.0944 24.4384C12.8869 24.454 12.7027 24.3891 12.5419 24.2439C12.3811 24.0986 12.2929 23.9248 12.2773 23.7225C12.2617 23.5201 12.3214 23.336 12.4563 23.17L20.0204 17.0689L12.4563 10.9678C12.3318 10.8225 12.2695 10.6565 12.2695 10.4698C12.2695 10.2415 12.3577 10.0495 12.5341 9.89389Z" fill="#333333"/>
</g>
<defs>
<clipPath id="clip0_1_1787">
<rect width="15.9375" height="31.875" fill="white" transform="matrix(1 0 0 -1 12.2695 33.022)"/>
</clipPath>
</defs>
</svg>
