<svg width="41" height="36" viewBox="0 0 41 36" fill="none" xmlns="http://www.w3.org/2000/svg">
<rect x="1.44531" y="1.22656" width="38.5156" height="33.2031" rx="3.32031" fill="#ECEDEF"/>
<rect x="1.44531" y="1.22656" width="38.5156" height="33.2031" rx="3.32031" stroke="#CCCCCC" stroke-width="1.32812"/>
<g clip-path="url(#clip0_1_1768)">
<path d="M22.2595 10.4698C22.2595 10.6565 22.1973 10.8225 22.0728 10.9678L14.5087 17.0689L22.0728 23.17C22.2076 23.336 22.2673 23.5201 22.2517 23.7225C22.2362 23.9248 22.1454 24.0986 21.9794 24.2439C21.8134 24.3891 21.6292 24.454 21.4268 24.4384C21.2245 24.4229 21.0507 24.3321 20.9055 24.166L12.9211 17.5669C12.7966 17.4217 12.7344 17.2556 12.7344 17.0689C12.7344 16.8821 12.7966 16.7161 12.9211 16.5708L20.9055 9.97171C21.0507 9.81607 21.2245 9.73047 21.4268 9.7149C21.6292 9.69934 21.8185 9.759 21.9949 9.89389C22.1713 10.0495 22.2595 10.2415 22.2595 10.4698Z" fill="#CCCCCC"/>
</g>
<defs>
<clipPath id="clip0_1_1768">
<rect width="15.9375" height="31.875" fill="white" transform="matrix(1 0 0 -1 12.7344 33.022)"/>
</clipPath>
</defs>
</svg>
