<svg width="32" height="33" viewBox="0 0 32 33" fill="none" xmlns="http://www.w3.org/2000/svg">
<path d="M26.8507 11.9095C25.4835 5.89355 20.2358 3.18506 15.6261 3.18506C15.6261 3.18506 15.6261 3.18506 15.6131 3.18506C11.0165 3.18506 5.75577 5.88053 4.3885 11.8965C2.86497 18.6156 6.97979 24.3061 10.704 27.887C12.0843 29.2152 13.8552 29.8793 15.6261 29.8793C17.3971 29.8793 19.168 29.2152 20.5353 27.887C24.2594 24.3061 28.3743 18.6287 26.8507 11.9095ZM15.6261 18.4333C13.3604 18.4333 11.5243 16.5973 11.5243 14.3315C11.5243 12.0658 13.3604 10.2297 15.6261 10.2297C17.8919 10.2297 19.7279 12.0658 19.7279 14.3315C19.7279 16.5973 17.8919 18.4333 15.6261 18.4333Z" fill="#0B90AF"/>
</svg>
