<svg width="46" height="46" viewBox="0 0 46 46" fill="none" xmlns="http://www.w3.org/2000/svg">
<path d="M32.5833 6.7085H13.4166C7.66659 6.7085 3.83325 9.5835 3.83325 16.2918V29.7085C3.83325 36.4168 7.66659 39.2918 13.4166 39.2918H32.5833C38.3333 39.2918 42.1666 36.4168 42.1666 29.7085V16.2918C42.1666 9.5835 38.3333 6.7085 32.5833 6.7085ZM33.4841 18.381L27.4849 23.1727C26.2199 24.1885 24.6099 24.6868 22.9999 24.6868C21.3899 24.6868 19.7608 24.1885 18.5149 23.1727L12.5158 18.381C11.9024 17.8827 11.8066 16.9627 12.2858 16.3493C12.7841 15.736 13.6849 15.621 14.2983 16.1193L20.2974 20.911C21.7541 22.0802 24.2266 22.0802 25.6833 20.911L31.6824 16.1193C32.2958 15.621 33.2158 15.7168 33.6949 16.3493C34.1933 16.9627 34.0974 17.8827 33.4841 18.381Z" fill="white"/>
</svg>
