<svg width="22" height="22" viewBox="0 0 22 22" fill="none" xmlns="http://www.w3.org/2000/svg">
<path d="M18.7336 7.6215C17.8146 3.57818 14.2877 1.75781 11.1895 1.75781C11.1895 1.75781 11.1895 1.75781 11.1808 1.75781C8.0914 1.75781 4.55568 3.56943 3.63674 7.61275C2.61279 12.1287 5.37835 15.9532 7.88135 18.3599C8.80904 19.2526 9.99928 19.6989 11.1895 19.6989C12.3798 19.6989 13.57 19.2526 14.4889 18.3599C16.992 15.9532 19.7575 12.1374 18.7336 7.6215ZM11.1895 12.0061C9.66672 12.0061 8.43272 10.7721 8.43272 9.24933C8.43272 7.72652 9.66672 6.49252 11.1895 6.49252C12.7123 6.49252 13.9463 7.72652 13.9463 9.24933C13.9463 10.7721 12.7123 12.0061 11.1895 12.0061Z" fill="#0B90AF"/>
</svg>
