<svg width="20" height="20" viewBox="0 0 20 20" fill="none" xmlns="http://www.w3.org/2000/svg">
<path d="M17.5584 4.35817C16.2167 4.22484 14.875 4.12484 13.525 4.04984V4.0415L13.3417 2.95817C13.2167 2.1915 13.0334 1.0415 11.0834 1.0415H8.90005C6.95838 1.0415 6.77505 2.1415 6.64172 2.94984L6.46672 4.0165C5.69172 4.0665 4.91672 4.1165 4.14172 4.1915L2.44172 4.35817C2.09172 4.3915 1.84172 4.69984 1.87505 5.0415C1.90838 5.38317 2.20838 5.63317 2.55838 5.59984L4.25838 5.43317C8.62505 4.99984 13.0251 5.1665 17.4417 5.60817C17.4667 5.60817 17.4834 5.60817 17.5084 5.60817C17.8251 5.60817 18.1 5.3665 18.1334 5.0415C18.1584 4.69984 17.9084 4.3915 17.5584 4.35817Z" fill="#FF0000"/>
<path d="M16.0254 6.7835C15.8254 6.57516 15.5504 6.4585 15.2671 6.4585H4.73378C4.45044 6.4585 4.16711 6.57516 3.97544 6.7835C3.78378 6.99183 3.67544 7.27516 3.69211 7.56683L4.20878 16.1168C4.30044 17.3835 4.41711 18.9668 7.32544 18.9668H12.6754C15.5838 18.9668 15.7004 17.3918 15.7921 16.1168L16.3088 7.57516C16.3254 7.27516 16.2171 6.99183 16.0254 6.7835ZM11.3838 14.7918H8.60878C8.26711 14.7918 7.98378 14.5085 7.98378 14.1668C7.98378 13.8252 8.26711 13.5418 8.60878 13.5418H11.3838C11.7254 13.5418 12.0088 13.8252 12.0088 14.1668C12.0088 14.5085 11.7254 14.7918 11.3838 14.7918ZM12.0838 11.4585H7.91711C7.57544 11.4585 7.29211 11.1752 7.29211 10.8335C7.29211 10.4918 7.57544 10.2085 7.91711 10.2085H12.0838C12.4254 10.2085 12.7088 10.4918 12.7088 10.8335C12.7088 11.1752 12.4254 11.4585 12.0838 11.4585Z" fill="#FF0000"/>
</svg>
