<svg width="46" height="46" viewBox="0 0 46 46" fill="none" xmlns="http://www.w3.org/2000/svg">
<path d="M21.1791 28.6543L17.6333 32.2002C16.8858 32.9477 15.6974 32.9477 14.9308 32.2193C14.7199 32.0085 14.5091 31.8168 14.2983 31.606C12.3241 29.6127 10.5416 27.5235 8.95075 25.3385C7.37909 23.1535 6.11409 20.9685 5.19409 18.8027C4.29325 16.6177 3.83325 14.5285 3.83325 12.5352C3.83325 11.2318 4.06325 9.986 4.52325 8.836C4.98325 7.66683 5.71159 6.5935 6.72742 5.63516C7.95409 4.42766 9.29575 3.8335 10.7141 3.8335C11.2508 3.8335 11.7874 3.9485 12.2666 4.1785C12.7649 4.4085 13.2058 4.7535 13.5508 5.25183L17.9974 11.5193C18.3424 11.9985 18.5916 12.4393 18.7641 12.861C18.9366 13.2635 19.0324 13.666 19.0324 14.0302C19.0324 14.4902 18.8983 14.9502 18.6299 15.391C18.3808 15.8318 18.0166 16.2918 17.5566 16.7518L16.0999 18.266C15.8891 18.4768 15.7933 18.726 15.7933 19.0327C15.7933 19.186 15.8124 19.3202 15.8508 19.4735C15.9083 19.6268 15.9658 19.7418 16.0041 19.8568C16.3491 20.4893 16.9433 21.3135 17.7866 22.3102C18.6491 23.3068 19.5691 24.3227 20.5658 25.3385C20.7574 25.5302 20.9683 25.7218 21.1599 25.9135C21.9266 26.661 21.9458 27.8877 21.1791 28.6543Z" fill="white"/>
<path d="M42.1091 35.1327C42.1091 35.6693 42.0132 36.2252 41.8216 36.7618C41.7641 36.9152 41.7066 37.0685 41.6299 37.2218C41.3041 37.9118 40.8824 38.5635 40.3266 39.1768C39.3874 40.2118 38.3524 40.9593 37.1832 41.4385C37.1641 41.4385 37.1449 41.4577 37.1257 41.4577C35.9949 41.9177 34.7682 42.1668 33.4457 42.1668C31.4907 42.1668 29.4016 41.7068 27.1974 40.7677C24.9932 39.8285 22.7891 38.5635 20.6041 36.9727C19.8566 36.4168 19.1091 35.861 18.3999 35.2668L24.6674 28.9993C25.2041 29.4018 25.6832 29.7085 26.0857 29.9193C26.1816 29.9577 26.2966 30.0152 26.4307 30.0727C26.5841 30.1302 26.7374 30.1493 26.9099 30.1493C27.2357 30.1493 27.4849 30.0343 27.6957 29.8235L29.1524 28.386C29.6316 27.9068 30.0916 27.5427 30.5324 27.3127C30.9732 27.0443 31.4141 26.9102 31.8932 26.9102C32.2574 26.9102 32.6407 26.9868 33.0624 27.1593C33.4841 27.3318 33.9249 27.581 34.4041 27.9068L40.7482 32.411C41.2466 32.756 41.5916 33.1585 41.8024 33.6377C41.9941 34.1168 42.1091 34.596 42.1091 35.1327Z" fill="white"/>
</svg>
